<?xml version="1.0" encoding="utf-8" standalone="no"?>
<!DOCTYPE svg PUBLIC "-//W3C//DTD SVG 1.1//EN"
  "http://www.w3.org/Graphics/SVG/1.1/DTD/svg11.dtd">
<!-- Created with matplotlib (https://matplotlib.org/) -->
<svg height="345.6pt" version="1.1" viewBox="0 0 460.8 345.6" width="460.8pt" xmlns="http://www.w3.org/2000/svg" xmlns:xlink="http://www.w3.org/1999/xlink">
 <metadata>
  <rdf:RDF xmlns:cc="http://creativecommons.org/ns#" xmlns:dc="http://purl.org/dc/elements/1.1/" xmlns:rdf="http://www.w3.org/1999/02/22-rdf-syntax-ns#">
   <cc:Work>
    <dc:type rdf:resource="http://purl.org/dc/dcmitype/StillImage"/>
    <dc:date>2020-12-01T14:47:56.367338</dc:date>
    <dc:format>image/svg+xml</dc:format>
    <dc:creator>
     <cc:Agent>
      <dc:title>Matplotlib v3.3.3, https://matplotlib.org/</dc:title>
     </cc:Agent>
    </dc:creator>
   </cc:Work>
  </rdf:RDF>
 </metadata>
 <defs>
  <style type="text/css">*{stroke-linecap:butt;stroke-linejoin:round;}</style>
 </defs>
 <g id="figure_1">
  <g id="patch_1">
   <path d="M 0 345.6 
L 460.8 345.6 
L 460.8 0 
L 0 0 
z
" style="fill:#ffffff;"/>
  </g>
  <g id="axes_1">
   <g id="patch_2">
    <path d="M 57.6 307.584 
L 414.72 307.584 
L 414.72 41.472 
L 57.6 41.472 
z
" style="fill:#ffffff;"/>
   </g>
   <g id="matplotlib.axis_1">
    <g id="xtick_1">
     <g id="line2d_1">
      <path clip-path="url(#p8f5fa0c5c0)" d="M 73.832727 307.584 
L 73.832727 41.472 
" style="fill:none;stroke:#b0b0b0;stroke-linecap:square;stroke-width:0.8;"/>
     </g>
     <g id="line2d_2">
      <defs>
       <path d="M 0 0 
L 0 3.5 
" id="m59b475e664" style="stroke:#000000;stroke-width:0.8;"/>
      </defs>
      <g>
       <use style="stroke:#000000;stroke-width:0.8;" x="73.832727" xlink:href="#m59b475e664" y="307.584"/>
      </g>
     </g>
     <g id="text_1">
      <!-- 0 -->
      <g transform="translate(70.651477 322.182437)scale(0.1 -0.1)">
       <defs>
        <path d="M 31.78125 66.40625 
Q 24.171875 66.40625 20.328125 58.90625 
Q 16.5 51.421875 16.5 36.375 
Q 16.5 21.390625 20.328125 13.890625 
Q 24.171875 6.390625 31.78125 6.390625 
Q 39.453125 6.390625 43.28125 13.890625 
Q 47.125 21.390625 47.125 36.375 
Q 47.125 51.421875 43.28125 58.90625 
Q 39.453125 66.40625 31.78125 66.40625 
z
M 31.78125 74.21875 
Q 44.046875 74.21875 50.515625 64.515625 
Q 56.984375 54.828125 56.984375 36.375 
Q 56.984375 17.96875 50.515625 8.265625 
Q 44.046875 -1.421875 31.78125 -1.421875 
Q 19.53125 -1.421875 13.0625 8.265625 
Q 6.59375 17.96875 6.59375 36.375 
Q 6.59375 54.828125 13.0625 64.515625 
Q 19.53125 74.21875 31.78125 74.21875 
z
" id="DejaVuSans-48"/>
       </defs>
       <use xlink:href="#DejaVuSans-48"/>
      </g>
     </g>
    </g>
    <g id="xtick_2">
     <g id="line2d_3">
      <path clip-path="url(#p8f5fa0c5c0)" d="M 138.893758 307.584 
L 138.893758 41.472 
" style="fill:none;stroke:#b0b0b0;stroke-linecap:square;stroke-width:0.8;"/>
     </g>
     <g id="line2d_4">
      <g>
       <use style="stroke:#000000;stroke-width:0.8;" x="138.893758" xlink:href="#m59b475e664" y="307.584"/>
      </g>
     </g>
     <g id="text_2">
      <!-- 100 -->
      <g transform="translate(129.350008 322.182437)scale(0.1 -0.1)">
       <defs>
        <path d="M 12.40625 8.296875 
L 28.515625 8.296875 
L 28.515625 63.921875 
L 10.984375 60.40625 
L 10.984375 69.390625 
L 28.421875 72.90625 
L 38.28125 72.90625 
L 38.28125 8.296875 
L 54.390625 8.296875 
L 54.390625 0 
L 12.40625 0 
z
" id="DejaVuSans-49"/>
       </defs>
       <use xlink:href="#DejaVuSans-49"/>
       <use x="63.623047" xlink:href="#DejaVuSans-48"/>
       <use x="127.246094" xlink:href="#DejaVuSans-48"/>
      </g>
     </g>
    </g>
    <g id="xtick_3">
     <g id="line2d_5">
      <path clip-path="url(#p8f5fa0c5c0)" d="M 203.95479 307.584 
L 203.95479 41.472 
" style="fill:none;stroke:#b0b0b0;stroke-linecap:square;stroke-width:0.8;"/>
     </g>
     <g id="line2d_6">
      <g>
       <use style="stroke:#000000;stroke-width:0.8;" x="203.95479" xlink:href="#m59b475e664" y="307.584"/>
      </g>
     </g>
     <g id="text_3">
      <!-- 200 -->
      <g transform="translate(194.41104 322.182437)scale(0.1 -0.1)">
       <defs>
        <path d="M 19.1875 8.296875 
L 53.609375 8.296875 
L 53.609375 0 
L 7.328125 0 
L 7.328125 8.296875 
Q 12.9375 14.109375 22.625 23.890625 
Q 32.328125 33.6875 34.8125 36.53125 
Q 39.546875 41.84375 41.421875 45.53125 
Q 43.3125 49.21875 43.3125 52.78125 
Q 43.3125 58.59375 39.234375 62.25 
Q 35.15625 65.921875 28.609375 65.921875 
Q 23.96875 65.921875 18.8125 64.3125 
Q 13.671875 62.703125 7.8125 59.421875 
L 7.8125 69.390625 
Q 13.765625 71.78125 18.9375 73 
Q 24.125 74.21875 28.421875 74.21875 
Q 39.75 74.21875 46.484375 68.546875 
Q 53.21875 62.890625 53.21875 53.421875 
Q 53.21875 48.921875 51.53125 44.890625 
Q 49.859375 40.875 45.40625 35.40625 
Q 44.1875 33.984375 37.640625 27.21875 
Q 31.109375 20.453125 19.1875 8.296875 
z
" id="DejaVuSans-50"/>
       </defs>
       <use xlink:href="#DejaVuSans-50"/>
       <use x="63.623047" xlink:href="#DejaVuSans-48"/>
       <use x="127.246094" xlink:href="#DejaVuSans-48"/>
      </g>
     </g>
    </g>
    <g id="xtick_4">
     <g id="line2d_7">
      <path clip-path="url(#p8f5fa0c5c0)" d="M 269.015821 307.584 
L 269.015821 41.472 
" style="fill:none;stroke:#b0b0b0;stroke-linecap:square;stroke-width:0.8;"/>
     </g>
     <g id="line2d_8">
      <g>
       <use style="stroke:#000000;stroke-width:0.8;" x="269.015821" xlink:href="#m59b475e664" y="307.584"/>
      </g>
     </g>
     <g id="text_4">
      <!-- 300 -->
      <g transform="translate(259.472071 322.182437)scale(0.1 -0.1)">
       <defs>
        <path d="M 40.578125 39.3125 
Q 47.65625 37.796875 51.625 33 
Q 55.609375 28.21875 55.609375 21.1875 
Q 55.609375 10.40625 48.1875 4.484375 
Q 40.765625 -1.421875 27.09375 -1.421875 
Q 22.515625 -1.421875 17.65625 -0.515625 
Q 12.796875 0.390625 7.625 2.203125 
L 7.625 11.71875 
Q 11.71875 9.328125 16.59375 8.109375 
Q 21.484375 6.890625 26.8125 6.890625 
Q 36.078125 6.890625 40.9375 10.546875 
Q 45.796875 14.203125 45.796875 21.1875 
Q 45.796875 27.640625 41.28125 31.265625 
Q 36.765625 34.90625 28.71875 34.90625 
L 20.21875 34.90625 
L 20.21875 43.015625 
L 29.109375 43.015625 
Q 36.375 43.015625 40.234375 45.921875 
Q 44.09375 48.828125 44.09375 54.296875 
Q 44.09375 59.90625 40.109375 62.90625 
Q 36.140625 65.921875 28.71875 65.921875 
Q 24.65625 65.921875 20.015625 65.03125 
Q 15.375 64.15625 9.8125 62.3125 
L 9.8125 71.09375 
Q 15.4375 72.65625 20.34375 73.4375 
Q 25.25 74.21875 29.59375 74.21875 
Q 40.828125 74.21875 47.359375 69.109375 
Q 53.90625 64.015625 53.90625 55.328125 
Q 53.90625 49.265625 50.4375 45.09375 
Q 46.96875 40.921875 40.578125 39.3125 
z
" id="DejaVuSans-51"/>
       </defs>
       <use xlink:href="#DejaVuSans-51"/>
       <use x="63.623047" xlink:href="#DejaVuSans-48"/>
       <use x="127.246094" xlink:href="#DejaVuSans-48"/>
      </g>
     </g>
    </g>
    <g id="xtick_5">
     <g id="line2d_9">
      <path clip-path="url(#p8f5fa0c5c0)" d="M 334.076852 307.584 
L 334.076852 41.472 
" style="fill:none;stroke:#b0b0b0;stroke-linecap:square;stroke-width:0.8;"/>
     </g>
     <g id="line2d_10">
      <g>
       <use style="stroke:#000000;stroke-width:0.8;" x="334.076852" xlink:href="#m59b475e664" y="307.584"/>
      </g>
     </g>
     <g id="text_5">
      <!-- 400 -->
      <g transform="translate(324.533102 322.182437)scale(0.1 -0.1)">
       <defs>
        <path d="M 37.796875 64.3125 
L 12.890625 25.390625 
L 37.796875 25.390625 
z
M 35.203125 72.90625 
L 47.609375 72.90625 
L 47.609375 25.390625 
L 58.015625 25.390625 
L 58.015625 17.1875 
L 47.609375 17.1875 
L 47.609375 0 
L 37.796875 0 
L 37.796875 17.1875 
L 4.890625 17.1875 
L 4.890625 26.703125 
z
" id="DejaVuSans-52"/>
       </defs>
       <use xlink:href="#DejaVuSans-52"/>
       <use x="63.623047" xlink:href="#DejaVuSans-48"/>
       <use x="127.246094" xlink:href="#DejaVuSans-48"/>
      </g>
     </g>
    </g>
    <g id="xtick_6">
     <g id="line2d_11">
      <path clip-path="url(#p8f5fa0c5c0)" d="M 399.137883 307.584 
L 399.137883 41.472 
" style="fill:none;stroke:#b0b0b0;stroke-linecap:square;stroke-width:0.8;"/>
     </g>
     <g id="line2d_12">
      <g>
       <use style="stroke:#000000;stroke-width:0.8;" x="399.137883" xlink:href="#m59b475e664" y="307.584"/>
      </g>
     </g>
     <g id="text_6">
      <!-- 500 -->
      <g transform="translate(389.594133 322.182437)scale(0.1 -0.1)">
       <defs>
        <path d="M 10.796875 72.90625 
L 49.515625 72.90625 
L 49.515625 64.59375 
L 19.828125 64.59375 
L 19.828125 46.734375 
Q 21.96875 47.46875 24.109375 47.828125 
Q 26.265625 48.1875 28.421875 48.1875 
Q 40.625 48.1875 47.75 41.5 
Q 54.890625 34.8125 54.890625 23.390625 
Q 54.890625 11.625 47.5625 5.09375 
Q 40.234375 -1.421875 26.90625 -1.421875 
Q 22.3125 -1.421875 17.546875 -0.640625 
Q 12.796875 0.140625 7.71875 1.703125 
L 7.71875 11.625 
Q 12.109375 9.234375 16.796875 8.0625 
Q 21.484375 6.890625 26.703125 6.890625 
Q 35.15625 6.890625 40.078125 11.328125 
Q 45.015625 15.765625 45.015625 23.390625 
Q 45.015625 31 40.078125 35.4375 
Q 35.15625 39.890625 26.703125 39.890625 
Q 22.75 39.890625 18.8125 39.015625 
Q 14.890625 38.140625 10.796875 36.28125 
z
" id="DejaVuSans-53"/>
       </defs>
       <use xlink:href="#DejaVuSans-53"/>
       <use x="63.623047" xlink:href="#DejaVuSans-48"/>
       <use x="127.246094" xlink:href="#DejaVuSans-48"/>
      </g>
     </g>
    </g>
    <g id="text_7">
     <!-- Generations -->
     <g transform="translate(205.662344 335.860562)scale(0.1 -0.1)">
      <defs>
       <path d="M 59.515625 10.40625 
L 59.515625 29.984375 
L 43.40625 29.984375 
L 43.40625 38.09375 
L 69.28125 38.09375 
L 69.28125 6.78125 
Q 63.578125 2.734375 56.6875 0.65625 
Q 49.8125 -1.421875 42 -1.421875 
Q 24.90625 -1.421875 15.25 8.5625 
Q 5.609375 18.5625 5.609375 36.375 
Q 5.609375 54.25 15.25 64.234375 
Q 24.90625 74.21875 42 74.21875 
Q 49.125 74.21875 55.546875 72.453125 
Q 61.96875 70.703125 67.390625 67.28125 
L 67.390625 56.78125 
Q 61.921875 61.421875 55.765625 63.765625 
Q 49.609375 66.109375 42.828125 66.109375 
Q 29.4375 66.109375 22.71875 58.640625 
Q 16.015625 51.171875 16.015625 36.375 
Q 16.015625 21.625 22.71875 14.15625 
Q 29.4375 6.6875 42.828125 6.6875 
Q 48.046875 6.6875 52.140625 7.59375 
Q 56.25 8.5 59.515625 10.40625 
z
" id="DejaVuSans-71"/>
       <path d="M 56.203125 29.59375 
L 56.203125 25.203125 
L 14.890625 25.203125 
Q 15.484375 15.921875 20.484375 11.0625 
Q 25.484375 6.203125 34.421875 6.203125 
Q 39.59375 6.203125 44.453125 7.46875 
Q 49.3125 8.734375 54.109375 11.28125 
L 54.109375 2.78125 
Q 49.265625 0.734375 44.1875 -0.34375 
Q 39.109375 -1.421875 33.890625 -1.421875 
Q 20.796875 -1.421875 13.15625 6.1875 
Q 5.515625 13.8125 5.515625 26.8125 
Q 5.515625 40.234375 12.765625 48.109375 
Q 20.015625 56 32.328125 56 
Q 43.359375 56 49.78125 48.890625 
Q 56.203125 41.796875 56.203125 29.59375 
z
M 47.21875 32.234375 
Q 47.125 39.59375 43.09375 43.984375 
Q 39.0625 48.390625 32.421875 48.390625 
Q 24.90625 48.390625 20.390625 44.140625 
Q 15.875 39.890625 15.1875 32.171875 
z
" id="DejaVuSans-101"/>
       <path d="M 54.890625 33.015625 
L 54.890625 0 
L 45.90625 0 
L 45.90625 32.71875 
Q 45.90625 40.484375 42.875 44.328125 
Q 39.84375 48.1875 33.796875 48.1875 
Q 26.515625 48.1875 22.3125 43.546875 
Q 18.109375 38.921875 18.109375 30.90625 
L 18.109375 0 
L 9.078125 0 
L 9.078125 54.6875 
L 18.109375 54.6875 
L 18.109375 46.1875 
Q 21.34375 51.125 25.703125 53.5625 
Q 30.078125 56 35.796875 56 
Q 45.21875 56 50.046875 50.171875 
Q 54.890625 44.34375 54.890625 33.015625 
z
" id="DejaVuSans-110"/>
       <path d="M 41.109375 46.296875 
Q 39.59375 47.171875 37.8125 47.578125 
Q 36.03125 48 33.890625 48 
Q 26.265625 48 22.1875 43.046875 
Q 18.109375 38.09375 18.109375 28.8125 
L 18.109375 0 
L 9.078125 0 
L 9.078125 54.6875 
L 18.109375 54.6875 
L 18.109375 46.1875 
Q 20.953125 51.171875 25.484375 53.578125 
Q 30.03125 56 36.53125 56 
Q 37.453125 56 38.578125 55.875 
Q 39.703125 55.765625 41.0625 55.515625 
z
" id="DejaVuSans-114"/>
       <path d="M 34.28125 27.484375 
Q 23.390625 27.484375 19.1875 25 
Q 14.984375 22.515625 14.984375 16.5 
Q 14.984375 11.71875 18.140625 8.90625 
Q 21.296875 6.109375 26.703125 6.109375 
Q 34.1875 6.109375 38.703125 11.40625 
Q 43.21875 16.703125 43.21875 25.484375 
L 43.21875 27.484375 
z
M 52.203125 31.203125 
L 52.203125 0 
L 43.21875 0 
L 43.21875 8.296875 
Q 40.140625 3.328125 35.546875 0.953125 
Q 30.953125 -1.421875 24.3125 -1.421875 
Q 15.921875 -1.421875 10.953125 3.296875 
Q 6 8.015625 6 15.921875 
Q 6 25.140625 12.171875 29.828125 
Q 18.359375 34.515625 30.609375 34.515625 
L 43.21875 34.515625 
L 43.21875 35.40625 
Q 43.21875 41.609375 39.140625 45 
Q 35.0625 48.390625 27.6875 48.390625 
Q 23 48.390625 18.546875 47.265625 
Q 14.109375 46.140625 10.015625 43.890625 
L 10.015625 52.203125 
Q 14.9375 54.109375 19.578125 55.046875 
Q 24.21875 56 28.609375 56 
Q 40.484375 56 46.34375 49.84375 
Q 52.203125 43.703125 52.203125 31.203125 
z
" id="DejaVuSans-97"/>
       <path d="M 18.3125 70.21875 
L 18.3125 54.6875 
L 36.8125 54.6875 
L 36.8125 47.703125 
L 18.3125 47.703125 
L 18.3125 18.015625 
Q 18.3125 11.328125 20.140625 9.421875 
Q 21.96875 7.515625 27.59375 7.515625 
L 36.8125 7.515625 
L 36.8125 0 
L 27.59375 0 
Q 17.1875 0 13.234375 3.875 
Q 9.28125 7.765625 9.28125 18.015625 
L 9.28125 47.703125 
L 2.6875 47.703125 
L 2.6875 54.6875 
L 9.28125 54.6875 
L 9.28125 70.21875 
z
" id="DejaVuSans-116"/>
       <path d="M 9.421875 54.6875 
L 18.40625 54.6875 
L 18.40625 0 
L 9.421875 0 
z
M 9.421875 75.984375 
L 18.40625 75.984375 
L 18.40625 64.59375 
L 9.421875 64.59375 
z
" id="DejaVuSans-105"/>
       <path d="M 30.609375 48.390625 
Q 23.390625 48.390625 19.1875 42.75 
Q 14.984375 37.109375 14.984375 27.296875 
Q 14.984375 17.484375 19.15625 11.84375 
Q 23.34375 6.203125 30.609375 6.203125 
Q 37.796875 6.203125 41.984375 11.859375 
Q 46.1875 17.53125 46.1875 27.296875 
Q 46.1875 37.015625 41.984375 42.703125 
Q 37.796875 48.390625 30.609375 48.390625 
z
M 30.609375 56 
Q 42.328125 56 49.015625 48.375 
Q 55.71875 40.765625 55.71875 27.296875 
Q 55.71875 13.875 49.015625 6.21875 
Q 42.328125 -1.421875 30.609375 -1.421875 
Q 18.84375 -1.421875 12.171875 6.21875 
Q 5.515625 13.875 5.515625 27.296875 
Q 5.515625 40.765625 12.171875 48.375 
Q 18.84375 56 30.609375 56 
z
" id="DejaVuSans-111"/>
       <path d="M 44.28125 53.078125 
L 44.28125 44.578125 
Q 40.484375 46.53125 36.375 47.5 
Q 32.28125 48.484375 27.875 48.484375 
Q 21.1875 48.484375 17.84375 46.4375 
Q 14.5 44.390625 14.5 40.28125 
Q 14.5 37.15625 16.890625 35.375 
Q 19.28125 33.59375 26.515625 31.984375 
L 29.59375 31.296875 
Q 39.15625 29.25 43.1875 25.515625 
Q 47.21875 21.78125 47.21875 15.09375 
Q 47.21875 7.46875 41.1875 3.015625 
Q 35.15625 -1.421875 24.609375 -1.421875 
Q 20.21875 -1.421875 15.453125 -0.5625 
Q 10.6875 0.296875 5.421875 2 
L 5.421875 11.28125 
Q 10.40625 8.6875 15.234375 7.390625 
Q 20.0625 6.109375 24.8125 6.109375 
Q 31.15625 6.109375 34.5625 8.28125 
Q 37.984375 10.453125 37.984375 14.40625 
Q 37.984375 18.0625 35.515625 20.015625 
Q 33.0625 21.96875 24.703125 23.78125 
L 21.578125 24.515625 
Q 13.234375 26.265625 9.515625 29.90625 
Q 5.8125 33.546875 5.8125 39.890625 
Q 5.8125 47.609375 11.28125 51.796875 
Q 16.75 56 26.8125 56 
Q 31.78125 56 36.171875 55.265625 
Q 40.578125 54.546875 44.28125 53.078125 
z
" id="DejaVuSans-115"/>
      </defs>
      <use xlink:href="#DejaVuSans-71"/>
      <use x="77.490234" xlink:href="#DejaVuSans-101"/>
      <use x="139.013672" xlink:href="#DejaVuSans-110"/>
      <use x="202.392578" xlink:href="#DejaVuSans-101"/>
      <use x="263.916016" xlink:href="#DejaVuSans-114"/>
      <use x="305.029297" xlink:href="#DejaVuSans-97"/>
      <use x="366.308594" xlink:href="#DejaVuSans-116"/>
      <use x="405.517578" xlink:href="#DejaVuSans-105"/>
      <use x="433.300781" xlink:href="#DejaVuSans-111"/>
      <use x="494.482422" xlink:href="#DejaVuSans-110"/>
      <use x="557.861328" xlink:href="#DejaVuSans-115"/>
     </g>
    </g>
   </g>
   <g id="matplotlib.axis_2">
    <g id="ytick_1">
     <g id="line2d_13">
      <path clip-path="url(#p8f5fa0c5c0)" d="M 57.6 303.194768 
L 414.72 303.194768 
" style="fill:none;stroke:#b0b0b0;stroke-linecap:square;stroke-width:0.8;"/>
     </g>
     <g id="line2d_14">
      <defs>
       <path d="M 0 0 
L -3.5 0 
" id="m3c4338354b" style="stroke:#000000;stroke-width:0.8;"/>
      </defs>
      <g>
       <use style="stroke:#000000;stroke-width:0.8;" x="57.6" xlink:href="#m3c4338354b" y="303.194768"/>
      </g>
     </g>
     <g id="text_8">
      <!-- −0.2 -->
      <g transform="translate(26.317187 306.993987)scale(0.1 -0.1)">
       <defs>
        <path d="M 10.59375 35.5 
L 73.1875 35.5 
L 73.1875 27.203125 
L 10.59375 27.203125 
z
" id="DejaVuSans-8722"/>
        <path d="M 10.6875 12.40625 
L 21 12.40625 
L 21 0 
L 10.6875 0 
z
" id="DejaVuSans-46"/>
       </defs>
       <use xlink:href="#DejaVuSans-8722"/>
       <use x="83.789062" xlink:href="#DejaVuSans-48"/>
       <use x="147.412109" xlink:href="#DejaVuSans-46"/>
       <use x="179.199219" xlink:href="#DejaVuSans-50"/>
      </g>
     </g>
    </g>
    <g id="ytick_2">
     <g id="line2d_15">
      <path clip-path="url(#p8f5fa0c5c0)" d="M 57.6 265.265709 
L 414.72 265.265709 
" style="fill:none;stroke:#b0b0b0;stroke-linecap:square;stroke-width:0.8;"/>
     </g>
     <g id="line2d_16">
      <g>
       <use style="stroke:#000000;stroke-width:0.8;" x="57.6" xlink:href="#m3c4338354b" y="265.265709"/>
      </g>
     </g>
     <g id="text_9">
      <!-- 0.0 -->
      <g transform="translate(34.696875 269.064928)scale(0.1 -0.1)">
       <use xlink:href="#DejaVuSans-48"/>
       <use x="63.623047" xlink:href="#DejaVuSans-46"/>
       <use x="95.410156" xlink:href="#DejaVuSans-48"/>
      </g>
     </g>
    </g>
    <g id="ytick_3">
     <g id="line2d_17">
      <path clip-path="url(#p8f5fa0c5c0)" d="M 57.6 227.33665 
L 414.72 227.33665 
" style="fill:none;stroke:#b0b0b0;stroke-linecap:square;stroke-width:0.8;"/>
     </g>
     <g id="line2d_18">
      <g>
       <use style="stroke:#000000;stroke-width:0.8;" x="57.6" xlink:href="#m3c4338354b" y="227.33665"/>
      </g>
     </g>
     <g id="text_10">
      <!-- 0.2 -->
      <g transform="translate(34.696875 231.135869)scale(0.1 -0.1)">
       <use xlink:href="#DejaVuSans-48"/>
       <use x="63.623047" xlink:href="#DejaVuSans-46"/>
       <use x="95.410156" xlink:href="#DejaVuSans-50"/>
      </g>
     </g>
    </g>
    <g id="ytick_4">
     <g id="line2d_19">
      <path clip-path="url(#p8f5fa0c5c0)" d="M 57.6 189.407592 
L 414.72 189.407592 
" style="fill:none;stroke:#b0b0b0;stroke-linecap:square;stroke-width:0.8;"/>
     </g>
     <g id="line2d_20">
      <g>
       <use style="stroke:#000000;stroke-width:0.8;" x="57.6" xlink:href="#m3c4338354b" y="189.407592"/>
      </g>
     </g>
     <g id="text_11">
      <!-- 0.4 -->
      <g transform="translate(34.696875 193.20681)scale(0.1 -0.1)">
       <use xlink:href="#DejaVuSans-48"/>
       <use x="63.623047" xlink:href="#DejaVuSans-46"/>
       <use x="95.410156" xlink:href="#DejaVuSans-52"/>
      </g>
     </g>
    </g>
    <g id="ytick_5">
     <g id="line2d_21">
      <path clip-path="url(#p8f5fa0c5c0)" d="M 57.6 151.478533 
L 414.72 151.478533 
" style="fill:none;stroke:#b0b0b0;stroke-linecap:square;stroke-width:0.8;"/>
     </g>
     <g id="line2d_22">
      <g>
       <use style="stroke:#000000;stroke-width:0.8;" x="57.6" xlink:href="#m3c4338354b" y="151.478533"/>
      </g>
     </g>
     <g id="text_12">
      <!-- 0.6 -->
      <g transform="translate(34.696875 155.277752)scale(0.1 -0.1)">
       <defs>
        <path d="M 33.015625 40.375 
Q 26.375 40.375 22.484375 35.828125 
Q 18.609375 31.296875 18.609375 23.390625 
Q 18.609375 15.53125 22.484375 10.953125 
Q 26.375 6.390625 33.015625 6.390625 
Q 39.65625 6.390625 43.53125 10.953125 
Q 47.40625 15.53125 47.40625 23.390625 
Q 47.40625 31.296875 43.53125 35.828125 
Q 39.65625 40.375 33.015625 40.375 
z
M 52.59375 71.296875 
L 52.59375 62.3125 
Q 48.875 64.0625 45.09375 64.984375 
Q 41.3125 65.921875 37.59375 65.921875 
Q 27.828125 65.921875 22.671875 59.328125 
Q 17.53125 52.734375 16.796875 39.40625 
Q 19.671875 43.65625 24.015625 45.921875 
Q 28.375 48.1875 33.59375 48.1875 
Q 44.578125 48.1875 50.953125 41.515625 
Q 57.328125 34.859375 57.328125 23.390625 
Q 57.328125 12.15625 50.6875 5.359375 
Q 44.046875 -1.421875 33.015625 -1.421875 
Q 20.359375 -1.421875 13.671875 8.265625 
Q 6.984375 17.96875 6.984375 36.375 
Q 6.984375 53.65625 15.1875 63.9375 
Q 23.390625 74.21875 37.203125 74.21875 
Q 40.921875 74.21875 44.703125 73.484375 
Q 48.484375 72.75 52.59375 71.296875 
z
" id="DejaVuSans-54"/>
       </defs>
       <use xlink:href="#DejaVuSans-48"/>
       <use x="63.623047" xlink:href="#DejaVuSans-46"/>
       <use x="95.410156" xlink:href="#DejaVuSans-54"/>
      </g>
     </g>
    </g>
    <g id="ytick_6">
     <g id="line2d_23">
      <path clip-path="url(#p8f5fa0c5c0)" d="M 57.6 113.549474 
L 414.72 113.549474 
" style="fill:none;stroke:#b0b0b0;stroke-linecap:square;stroke-width:0.8;"/>
     </g>
     <g id="line2d_24">
      <g>
       <use style="stroke:#000000;stroke-width:0.8;" x="57.6" xlink:href="#m3c4338354b" y="113.549474"/>
      </g>
     </g>
     <g id="text_13">
      <!-- 0.8 -->
      <g transform="translate(34.696875 117.348693)scale(0.1 -0.1)">
       <defs>
        <path d="M 31.78125 34.625 
Q 24.75 34.625 20.71875 30.859375 
Q 16.703125 27.09375 16.703125 20.515625 
Q 16.703125 13.921875 20.71875 10.15625 
Q 24.75 6.390625 31.78125 6.390625 
Q 38.8125 6.390625 42.859375 10.171875 
Q 46.921875 13.96875 46.921875 20.515625 
Q 46.921875 27.09375 42.890625 30.859375 
Q 38.875 34.625 31.78125 34.625 
z
M 21.921875 38.8125 
Q 15.578125 40.375 12.03125 44.71875 
Q 8.5 49.078125 8.5 55.328125 
Q 8.5 64.0625 14.71875 69.140625 
Q 20.953125 74.21875 31.78125 74.21875 
Q 42.671875 74.21875 48.875 69.140625 
Q 55.078125 64.0625 55.078125 55.328125 
Q 55.078125 49.078125 51.53125 44.71875 
Q 48 40.375 41.703125 38.8125 
Q 48.828125 37.15625 52.796875 32.3125 
Q 56.78125 27.484375 56.78125 20.515625 
Q 56.78125 9.90625 50.3125 4.234375 
Q 43.84375 -1.421875 31.78125 -1.421875 
Q 19.734375 -1.421875 13.25 4.234375 
Q 6.78125 9.90625 6.78125 20.515625 
Q 6.78125 27.484375 10.78125 32.3125 
Q 14.796875 37.15625 21.921875 38.8125 
z
M 18.3125 54.390625 
Q 18.3125 48.734375 21.84375 45.5625 
Q 25.390625 42.390625 31.78125 42.390625 
Q 38.140625 42.390625 41.71875 45.5625 
Q 45.3125 48.734375 45.3125 54.390625 
Q 45.3125 60.0625 41.71875 63.234375 
Q 38.140625 66.40625 31.78125 66.40625 
Q 25.390625 66.40625 21.84375 63.234375 
Q 18.3125 60.0625 18.3125 54.390625 
z
" id="DejaVuSans-56"/>
       </defs>
       <use xlink:href="#DejaVuSans-48"/>
       <use x="63.623047" xlink:href="#DejaVuSans-46"/>
       <use x="95.410156" xlink:href="#DejaVuSans-56"/>
      </g>
     </g>
    </g>
    <g id="ytick_7">
     <g id="line2d_25">
      <path clip-path="url(#p8f5fa0c5c0)" d="M 57.6 75.620415 
L 414.72 75.620415 
" style="fill:none;stroke:#b0b0b0;stroke-linecap:square;stroke-width:0.8;"/>
     </g>
     <g id="line2d_26">
      <g>
       <use style="stroke:#000000;stroke-width:0.8;" x="57.6" xlink:href="#m3c4338354b" y="75.620415"/>
      </g>
     </g>
     <g id="text_14">
      <!-- 1.0 -->
      <g transform="translate(34.696875 79.419634)scale(0.1 -0.1)">
       <use xlink:href="#DejaVuSans-49"/>
       <use x="63.623047" xlink:href="#DejaVuSans-46"/>
       <use x="95.410156" xlink:href="#DejaVuSans-48"/>
      </g>
     </g>
    </g>
    <g id="text_15">
     <!-- Fitness -->
     <g transform="translate(20.2375 191.845187)rotate(-90)scale(0.1 -0.1)">
      <defs>
       <path d="M 9.8125 72.90625 
L 51.703125 72.90625 
L 51.703125 64.59375 
L 19.671875 64.59375 
L 19.671875 43.109375 
L 48.578125 43.109375 
L 48.578125 34.8125 
L 19.671875 34.8125 
L 19.671875 0 
L 9.8125 0 
z
" id="DejaVuSans-70"/>
      </defs>
      <use xlink:href="#DejaVuSans-70"/>
      <use x="50.269531" xlink:href="#DejaVuSans-105"/>
      <use x="78.052734" xlink:href="#DejaVuSans-116"/>
      <use x="117.261719" xlink:href="#DejaVuSans-110"/>
      <use x="180.640625" xlink:href="#DejaVuSans-101"/>
      <use x="242.164062" xlink:href="#DejaVuSans-115"/>
      <use x="294.263672" xlink:href="#DejaVuSans-115"/>
     </g>
    </g>
   </g>
   <g id="line2d_27">
    <path clip-path="url(#p8f5fa0c5c0)" d="M 73.832727 189.399363 
L 74.483338 200.781993 
L 75.133948 204.574566 
L 75.784558 207.230165 
L 76.435169 208.747361 
L 77.736389 204.574923 
L 78.386999 206.732355 
L 79.03761 194.145296 
L 80.33883 199.487512 
L 80.989441 185.661484 
L 81.640051 188.899064 
L 82.290661 196.678388 
L 82.941272 185.221379 
L 84.242492 190.04821 
L 84.893103 189.538088 
L 85.543713 184.036609 
L 86.194323 183.349081 
L 86.844934 191.08968 
L 87.495544 175.917457 
L 88.146154 190.757206 
L 88.796764 182.827766 
L 89.447375 186.244807 
L 90.097985 195.719876 
L 90.748595 173.499233 
L 91.399206 192.89786 
L 92.049816 191.40083 
L 92.700426 187.296745 
L 93.351037 175.018946 
L 94.001647 186.695017 
L 94.652257 173.056871 
L 95.302868 185.733274 
L 95.953478 188.139892 
L 96.604088 195.727207 
L 97.254698 187.373946 
L 97.905309 186.694684 
L 98.555919 186.486166 
L 99.206529 204.305956 
L 99.85714 177.213538 
L 100.50775 173.148521 
L 101.15836 167.522614 
L 101.808971 189.40601 
L 102.459581 192.85188 
L 103.110191 187.406855 
L 103.760802 184.135789 
L 104.411412 183.081747 
L 105.062022 182.294458 
L 105.712633 189.405178 
L 106.363243 173.149787 
L 107.013853 183.570839 
L 107.664463 184.665209 
L 108.315074 187.823125 
L 108.965684 185.341806 
L 109.616294 167.280411 
L 110.266905 176.762614 
L 110.917515 190.864965 
L 111.568125 189.389968 
L 112.218736 190.760539 
L 112.869346 182.293646 
L 113.519956 176.368283 
L 114.170567 175.709402 
L 114.821177 174.654901 
L 115.471787 193.620805 
L 116.122398 190.459468 
L 116.773008 180.481695 
L 117.423618 172.671563 
L 118.074228 178.427101 
L 118.724839 179.923307 
L 119.375449 174.655474 
L 120.026059 188.408412 
L 121.32728 172.165541 
L 121.97789 163.544362 
L 122.628501 172.914534 
L 123.279111 177.735388 
L 123.929721 171.14421 
L 124.580332 175.859739 
L 125.230942 189.405505 
L 126.532163 170.43967 
L 127.182773 177.428649 
L 127.833383 173.844647 
L 128.483993 174.051515 
L 129.134604 168.590607 
L 129.785214 179.133531 
L 130.435824 163.14678 
L 131.086435 175.547384 
L 131.737045 169.779855 
L 132.387655 176.969588 
L 133.038266 179.922482 
L 133.688876 175.478648 
L 134.339486 168.958955 
L 134.990097 176.558536 
L 135.640707 173.384024 
L 136.291317 172.104614 
L 136.941927 177.782762 
L 137.592538 176.27568 
L 138.243148 175.946574 
L 138.893758 164.90962 
L 139.544369 183.634453 
L 140.194979 171.705973 
L 140.845589 169.615622 
L 141.4962 165.925215 
L 142.14681 174.751579 
L 143.448031 163.824919 
L 144.098641 168.334381 
L 144.749251 165.226192 
L 145.399862 173.088183 
L 146.050472 168.184191 
L 146.701082 185.370215 
L 147.351692 182.293884 
L 148.002303 171.862174 
L 148.652913 169.08633 
L 149.303523 180.16739 
L 149.954134 163.396989 
L 150.604744 174.231817 
L 151.255354 175.498801 
L 151.905965 182.212115 
L 152.556575 168.069596 
L 153.207185 170.999544 
L 153.857796 164.120543 
L 155.159016 179.512281 
L 155.809627 165.494912 
L 156.460237 181.82101 
L 157.761457 171.345409 
L 158.412068 172.915798 
L 159.062678 169.539078 
L 159.713288 171.557227 
L 160.363899 172.337807 
L 161.014509 186.489032 
L 161.665119 176.276643 
L 162.31573 167.825587 
L 162.96634 167.382469 
L 163.61695 176.18884 
L 164.267561 166.227676 
L 164.918171 174.23474 
L 165.568781 162.194755 
L 166.219392 171.958985 
L 166.870002 171.457798 
L 167.520612 174.620438 
L 168.171222 175.499265 
L 168.821833 165.863731 
L 169.472443 168.886506 
L 170.123053 170.158774 
L 170.773664 175.901235 
L 171.424274 176.760758 
L 172.074884 170.212892 
L 172.725495 176.917267 
L 173.376105 164.438376 
L 174.026715 171.765134 
L 174.677326 170.020062 
L 175.327936 165.051983 
L 175.978546 173.176715 
L 176.629156 173.027023 
L 177.279767 168.200341 
L 177.930377 173.494854 
L 178.580987 168.996232 
L 179.231598 172.166083 
L 179.882208 171.328129 
L 180.532818 172.428181 
L 181.183429 165.85371 
L 181.834039 177.404318 
L 182.484649 165.850199 
L 183.13526 169.947305 
L 183.78587 170.936596 
L 184.43648 167.2044 
L 185.087091 165.852529 
L 186.388311 169.087181 
L 187.038921 164.069605 
L 187.689532 169.256756 
L 188.340142 171.525445 
L 188.990752 171.039118 
L 189.641363 163.134385 
L 190.291973 172.747546 
L 190.942583 170.442249 
L 191.593194 162.970758 
L 192.243804 167.424699 
L 192.894414 163.739607 
L 193.545025 172.79544 
L 194.195635 165.308708 
L 194.846245 167.617482 
L 195.496856 171.169932 
L 196.798076 166.455413 
L 197.448686 169.429339 
L 198.099297 167.666307 
L 198.749907 167.080928 
L 199.400517 165.122807 
L 200.051128 169.406821 
L 200.701738 167.556294 
L 201.352348 164.509565 
L 202.002959 172.174459 
L 202.653569 175.781464 
L 203.304179 165.261122 
L 203.95479 171.645574 
L 204.6054 170.120695 
L 205.25601 167.054932 
L 205.906621 168.360152 
L 206.557231 164.197004 
L 207.207841 164.729881 
L 207.858451 168.330332 
L 208.509062 170.322212 
L 209.159672 169.936284 
L 209.810282 166.349012 
L 210.460893 165.666476 
L 211.111503 173.358959 
L 211.762113 173.952973 
L 212.412724 169.042398 
L 213.063334 173.17396 
L 213.713944 171.295783 
L 214.364555 167.596992 
L 215.015165 166.079766 
L 215.665775 173.997608 
L 216.316385 165.749146 
L 216.966996 167.524799 
L 217.617606 166.187839 
L 218.268216 165.793624 
L 218.918827 169.161675 
L 219.569437 155.888025 
L 220.220047 162.682697 
L 220.870658 168.174044 
L 221.521268 161.385698 
L 222.171878 169.885005 
L 222.822489 168.497072 
L 223.473099 159.334103 
L 224.123709 168.861731 
L 224.77432 170.441739 
L 225.42493 165.829092 
L 226.07554 164.219428 
L 226.72615 168.936979 
L 227.376761 165.92676 
L 228.027371 170.441819 
L 228.677981 168.860304 
L 229.328592 169.809934 
L 229.979202 173.837997 
L 230.629812 163.066942 
L 231.280423 164.27838 
L 231.931033 168.803209 
L 232.581643 167.928662 
L 233.232254 162.347569 
L 233.882864 167.354826 
L 234.533474 171.08125 
L 235.184085 170.046128 
L 235.834695 172.507375 
L 236.485305 166.649055 
L 237.135915 166.351018 
L 237.786526 173.416597 
L 238.437136 161.975607 
L 239.087746 169.076513 
L 239.738357 167.327683 
L 240.388967 163.468906 
L 241.039577 166.419196 
L 241.690188 171.471144 
L 242.340798 164.795831 
L 242.991408 168.177022 
L 243.642019 168.380624 
L 244.292629 170.44212 
L 244.943239 170.777423 
L 245.59385 170.973439 
L 246.24446 165.925864 
L 246.89507 172.098785 
L 247.54568 169.348185 
L 248.196291 169.769962 
L 248.846901 169.176991 
L 249.497511 171.784542 
L 250.148122 164.606641 
L 250.798732 165.494382 
L 251.449342 173.908574 
L 252.099953 173.868985 
L 252.750563 173.529473 
L 253.401173 175.539872 
L 254.702394 170.983167 
L 255.353004 170.829071 
L 256.003615 169.376625 
L 256.654225 166.954391 
L 257.304835 168.433972 
L 257.955445 174.933459 
L 258.606056 166.025756 
L 259.256666 164.832756 
L 259.907276 174.776832 
L 260.557887 166.357589 
L 261.208497 170.14123 
L 261.859107 171.053706 
L 262.509718 171.749857 
L 263.160328 177.782773 
L 263.810938 174.4649 
L 264.461549 158.521029 
L 265.112159 173.039384 
L 265.762769 165.816429 
L 266.413379 167.354693 
L 267.06399 169.979298 
L 267.7146 165.533528 
L 268.36521 170.441497 
L 269.015821 172.862457 
L 269.666431 164.528235 
L 270.317041 168.480319 
L 270.967652 168.333944 
L 271.618262 169.538825 
L 272.268872 175.246198 
L 272.919483 169.729963 
L 273.570093 168.949898 
L 274.220703 172.473773 
L 274.871314 177.047511 
L 275.521924 175.298423 
L 276.172534 166.840862 
L 276.823144 166.448963 
L 277.473755 167.927101 
L 278.124365 166.317802 
L 278.774975 170.255631 
L 279.425586 169.739461 
L 280.076196 175.102586 
L 280.726806 170.130743 
L 281.377417 173.193044 
L 282.028027 164.068839 
L 282.678637 174.937161 
L 283.329248 166.859442 
L 283.979858 163.483731 
L 284.630468 168.289394 
L 285.281079 167.444261 
L 285.931689 163.640696 
L 286.582299 169.027331 
L 287.232909 167.014531 
L 288.53413 166.91359 
L 289.18474 175.444921 
L 289.835351 169.146237 
L 290.485961 164.821379 
L 291.136571 168.93156 
L 291.787182 167.27994 
L 292.437792 169.032677 
L 293.088402 167.455938 
L 293.739013 164.12041 
L 294.389623 172.498248 
L 295.040233 172.811346 
L 295.690844 169.453999 
L 296.341454 174.444102 
L 296.992064 170.730411 
L 297.642674 170.158822 
L 298.293285 168.010347 
L 298.943895 171.47011 
L 299.594505 171.471913 
L 300.245116 170.091352 
L 300.895726 164.334501 
L 301.546336 167.678645 
L 302.196947 167.791728 
L 302.847557 170.807155 
L 303.498167 168.365941 
L 304.148778 166.838241 
L 304.799388 169.347812 
L 305.449998 166.958978 
L 306.100608 163.666426 
L 306.751219 168.943135 
L 307.401829 163.666825 
L 308.052439 165.591388 
L 308.70305 166.271502 
L 309.35366 167.346119 
L 310.00427 167.280906 
L 310.654881 175.182675 
L 311.956101 165.44961 
L 312.606712 167.720504 
L 313.257322 175.860424 
L 313.907932 175.246628 
L 314.558543 174.355148 
L 315.209153 179.751853 
L 315.859763 165.977291 
L 316.510373 144.880769 
L 317.160984 170.441839 
L 317.811594 176.327715 
L 318.462204 156.534043 
L 319.112815 159.774481 
L 319.763425 166.293408 
L 320.414035 162.396818 
L 321.064646 162.456847 
L 321.715256 165.69979 
L 322.365866 164.248961 
L 323.016477 171.602361 
L 323.667087 169.776602 
L 324.317697 161.712011 
L 324.968308 162.910654 
L 325.618918 165.450365 
L 326.269528 158.701895 
L 326.920138 169.464522 
L 327.570749 166.247935 
L 328.221359 162.180326 
L 328.871969 166.873416 
L 329.52258 172.527572 
L 330.8238 165.450683 
L 331.474411 163.02058 
L 332.125021 169.241162 
L 332.775631 170.934218 
L 333.426242 176.498532 
L 334.727462 158.9487 
L 335.378073 170.441037 
L 336.028683 160.353701 
L 336.679293 167.070552 
L 337.329903 170.43782 
L 337.980514 167.44772 
L 338.631124 169.019223 
L 339.281734 176.76256 
L 339.932345 168.44393 
L 340.582955 175.430088 
L 341.233565 178.120569 
L 341.884176 182.00511 
L 342.534786 165.695226 
L 343.185396 163.018793 
L 343.836007 175.172744 
L 344.486617 169.493066 
L 345.137227 166.992729 
L 345.787837 172.258593 
L 346.438448 175.121418 
L 347.089058 171.864368 
L 347.739668 165.181017 
L 348.390279 168.841521 
L 349.040889 168.231891 
L 349.691499 173.56416 
L 350.34211 174.514873 
L 350.99272 168.33365 
L 351.64333 167.151858 
L 352.293941 166.794369 
L 352.944551 170.624168 
L 354.245772 166.353373 
L 354.896382 173.873414 
L 355.546992 171.988156 
L 356.197602 177.718552 
L 356.848213 175.648717 
L 357.498823 170.024577 
L 358.149433 170.046244 
L 358.800044 176.320834 
L 359.450654 160.31286 
L 360.751875 173.600024 
L 362.053095 166.357015 
L 362.703706 170.292372 
L 363.354316 172.110117 
L 364.004926 171.87636 
L 364.655537 170.897344 
L 365.306147 171.044025 
L 365.956757 167.558946 
L 366.607367 167.780162 
L 367.257978 166.345029 
L 367.908588 167.951965 
L 368.559198 169.898646 
L 369.209809 164.593155 
L 369.860419 168.717133 
L 370.511029 167.989171 
L 371.16164 170.774675 
L 371.81225 170.941328 
L 372.46286 168.543526 
L 373.113471 168.112605 
L 373.764081 164.91479 
L 374.414691 167.378495 
L 375.065302 166.710577 
L 375.715912 176.651622 
L 376.366522 163.812487 
L 377.017132 168.778914 
L 377.667743 165.479818 
L 378.318353 166.788479 
L 378.968963 167.414091 
L 379.619574 162.314788 
L 380.270184 171.863621 
L 380.920794 168.221057 
L 381.571405 170.287708 
L 382.222015 165.54319 
L 382.872625 174.350915 
L 383.523236 168.143392 
L 384.173846 168.839282 
L 384.824456 170.442354 
L 385.475066 162.11287 
L 386.125677 166.449791 
L 386.776287 166.267504 
L 387.426897 171.398637 
L 388.077508 168.334818 
L 388.728118 173.904662 
L 389.378728 167.474021 
L 390.029339 171.952497 
L 390.679949 166.542961 
L 391.330559 168.507064 
L 391.98117 171.399994 
L 392.63178 172.098691 
L 393.28239 166.979364 
L 393.933001 165.574915 
L 394.583611 169.625013 
L 395.234221 167.943193 
L 395.884831 169.668025 
L 396.535442 170.8206 
L 397.836662 165.918836 
L 398.487273 170.616491 
L 398.487273 170.616491 
" style="fill:none;stroke:#0000ff;stroke-linecap:square;stroke-width:1.5;"/>
   </g>
   <g id="line2d_28">
    <path clip-path="url(#p8f5fa0c5c0)" d="M 73.832727 282.307573 
L 74.483338 290.619404 
L 75.133948 293.041585 
L 75.784558 294.62469 
L 76.435169 295.488 
L 77.736389 293.039753 
L 78.386999 294.334132 
L 79.03761 285.958164 
L 80.33883 289.752463 
L 80.989441 279.255122 
L 81.640051 281.908456 
L 82.290661 287.799294 
L 82.941272 278.885877 
L 84.242492 282.822074 
L 84.893103 282.418391 
L 85.543713 277.87905 
L 86.194323 277.291917 
L 86.844934 283.637443 
L 87.495544 270.582311 
L 88.146154 283.378387 
L 88.796764 276.838634 
L 89.447375 279.74179 
L 90.097985 287.109948 
L 90.748595 268.273169 
L 91.399206 285.022868 
L 92.049816 283.877982 
L 92.700426 280.608822 
L 93.351037 269.731451 
L 94.001647 280.115102 
L 94.652257 267.843805 
L 95.302868 279.316052 
L 95.953478 281.29658 
L 96.604088 287.116581 
L 97.254698 280.672802 
L 97.905309 280.114858 
L 98.555919 279.943003 
L 99.206529 292.875598 
L 99.85714 271.79466 
L 100.50775 267.933459 
L 101.15836 262.300843 
L 101.808971 282.31314 
L 102.459581 284.988766 
L 103.110191 280.699469 
L 103.760802 277.964336 
L 104.411412 277.05983 
L 105.062022 276.37359 
L 105.712633 282.313021 
L 106.363243 267.934547 
L 107.013853 277.480677 
L 107.664463 278.415326 
L 108.315074 281.039825 
L 108.965684 278.986985 
L 109.616294 262.05083 
L 110.266905 271.375099 
L 110.917515 283.462329 
L 111.568125 282.303427 
L 112.218736 283.381012 
L 112.869346 276.372988 
L 113.519956 271.005691 
L 114.170567 270.386054 
L 114.821177 269.384396 
L 115.471787 285.567243 
L 116.122398 283.145354 
L 117.423618 267.468489 
L 118.074228 272.913179 
L 118.724839 274.271283 
L 119.375449 269.385153 
L 120.026059 281.513796 
L 120.67667 275.043134 
L 121.97789 258.11667 
L 122.628501 267.705923 
L 123.279111 272.277572 
L 123.929721 265.96452 
L 124.580332 270.527824 
L 125.230942 282.312858 
L 125.881552 274.501417 
L 126.532163 265.264318 
L 127.182773 271.993805 
L 127.833383 268.606674 
L 128.483993 268.806601 
L 129.134604 263.395652 
L 129.785214 273.557408 
L 130.435824 257.68925 
L 131.086435 270.232834 
L 131.737045 264.597754 
L 132.387655 271.567844 
L 133.038266 274.270561 
L 133.688876 270.167764 
L 134.339486 263.770538 
L 134.990097 271.184507 
L 135.640707 268.161512 
L 136.291317 266.913024 
L 136.941927 272.321111 
L 137.592538 270.919547 
L 138.243148 270.609096 
L 138.893758 259.571273 
L 139.544369 277.53537 
L 140.194979 266.520686 
L 140.845589 264.435909 
L 141.4962 260.640259 
L 142.14681 269.476729 
L 143.448031 258.417462 
L 144.098641 263.134111 
L 144.749251 259.905739 
L 145.399862 267.874208 
L 146.050472 262.980244 
L 146.701082 279.011149 
L 147.351692 276.37305 
L 148.002303 266.675898 
L 148.652913 263.899258 
L 149.303523 274.490234 
L 149.954134 257.958209 
L 150.604744 268.980525 
L 151.255354 270.186749 
L 151.905965 276.302153 
L 152.556575 262.864254 
L 153.207185 265.820881 
L 153.857796 258.732475 
L 155.159016 273.900277 
L 155.809627 260.188553 
L 156.460237 275.95864 
L 157.761457 266.163959 
L 158.412068 267.706376 
L 159.062678 264.35767 
L 159.713288 266.373853 
L 160.363899 267.142215 
L 161.014509 279.944198 
L 162.31573 262.612408 
L 162.96634 262.156125 
L 163.61695 270.83751 
L 164.267561 260.956899 
L 164.918171 268.981953 
L 165.568781 256.659619 
L 166.219392 266.769956 
L 166.870002 266.27517 
L 167.520612 269.351567 
L 168.171222 270.187222 
L 168.821833 260.576372 
L 169.472443 263.697338 
L 170.123053 264.981035 
L 170.773664 270.567193 
L 171.424274 271.374311 
L 172.074884 265.035762 
L 172.725495 271.518874 
L 173.376105 259.071648 
L 174.026715 266.578806 
L 174.677326 264.842203 
L 175.327936 259.721542 
L 175.978546 267.960545 
L 176.629156 267.81533 
L 177.279767 262.996784 
L 177.930377 268.268461 
L 178.580987 263.808372 
L 179.231598 266.973235 
L 179.882208 266.14697 
L 180.532818 267.229747 
L 181.183429 260.565661 
L 181.834039 271.971517 
L 182.484649 260.564452 
L 183.13526 264.768946 
L 183.78587 265.758373 
L 184.43648 261.971987 
L 185.087091 260.564759 
L 186.388311 263.900625 
L 187.038921 258.678195 
L 187.689532 264.072295 
L 188.340142 266.342327 
L 188.990752 265.860196 
L 189.641363 257.675543 
L 190.291973 267.543116 
L 190.942583 265.265133 
L 191.593194 257.498919 
L 192.243804 262.199854 
L 192.894414 258.325993 
L 193.545025 267.589002 
L 194.195635 259.992617 
L 194.846245 262.398395 
L 195.496856 265.989229 
L 196.798076 261.194678 
L 197.448686 264.247284 
L 198.099297 262.448541 
L 198.749907 261.843799 
L 199.400517 259.796401 
L 200.051128 264.224168 
L 200.701738 262.335219 
L 201.352348 259.146856 
L 202.002959 266.981675 
L 202.653569 270.454065 
L 203.304179 259.942258 
L 203.95479 266.461022 
L 204.6054 264.943142 
L 205.25601 261.817594 
L 205.906621 263.160721 
L 206.557231 258.814355 
L 207.207841 259.380627 
L 207.858451 263.129578 
L 208.509062 265.14525 
L 209.159672 264.75767 
L 209.810282 261.083531 
L 210.460893 260.36898 
L 211.111503 268.136952 
L 211.762113 268.710889 
L 212.412724 263.855398 
L 213.063334 267.957651 
L 213.713944 266.115315 
L 214.364555 262.37731 
L 215.015165 260.802385 
L 215.665775 268.754008 
L 216.316385 260.456243 
L 216.966996 262.302699 
L 217.617606 260.915472 
L 218.268216 260.502539 
L 218.918827 263.97638 
L 219.569437 249.58732 
L 220.220047 257.188295 
L 220.870658 262.970048 
L 221.521268 255.776466 
L 222.171878 264.70624 
L 222.822489 263.300041 
L 223.473099 253.504408 
L 224.123709 263.671338 
L 224.77432 265.265061 
L 225.42493 260.539765 
L 226.07554 258.837935 
L 226.72615 263.747917 
L 227.376761 260.64216 
L 228.027371 265.264805 
L 228.677981 263.671515 
L 229.328592 264.630714 
L 229.979202 268.600025 
L 230.629812 257.602503 
L 231.280423 258.900677 
L 231.931033 263.612003 
L 232.581643 262.718308 
L 233.232254 256.824328 
L 233.882864 262.127565 
L 234.533474 265.901977 
L 235.184085 264.868489 
L 235.834695 267.307818 
L 236.485305 261.396101 
L 237.135915 261.085906 
L 237.786526 268.192775 
L 238.437136 256.419802 
L 239.087746 263.889823 
L 239.738357 262.099205 
L 240.388967 258.035377 
L 241.039577 261.156678 
L 241.690188 266.288539 
L 242.340798 259.450369 
L 242.991408 262.973064 
L 243.642019 263.181552 
L 244.292629 265.265067 
L 244.943239 265.600031 
L 245.59385 265.795068 
L 246.24446 260.641254 
L 246.89507 266.90656 
L 247.54568 264.164747 
L 248.196291 264.59046 
L 248.846901 263.991995 
L 249.497511 266.598054 
L 250.148122 259.249685 
L 250.798732 260.188148 
L 251.449342 268.668064 
L 252.099953 268.629898 
L 252.750563 268.301962 
L 253.401173 270.225587 
L 254.702394 265.804138 
L 255.353004 265.651164 
L 256.003615 264.193594 
L 256.654225 261.71309 
L 257.304835 263.235602 
L 257.955445 269.649863 
L 258.606056 260.745741 
L 259.256666 259.489657 
L 259.907276 269.500563 
L 260.557887 261.09239 
L 261.208497 264.963526 
L 261.859107 265.874779 
L 262.509718 266.563457 
L 263.160328 272.321148 
L 263.810938 269.202462 
L 264.461549 252.591898 
L 265.112159 267.826896 
L 265.762769 260.52641 
L 266.413379 262.127403 
L 267.06399 264.801283 
L 267.7146 260.229353 
L 268.36521 265.264844 
L 269.015821 267.654379 
L 269.666431 259.16642 
L 270.317041 263.282904 
L 270.967652 263.133506 
L 271.618262 264.357569 
L 272.268872 269.947404 
L 272.919483 264.550218 
L 273.570093 263.761189 
L 274.220703 267.275023 
L 274.871314 271.639969 
L 275.521924 269.996879 
L 276.172534 261.595318 
L 276.823144 261.188184 
L 277.473755 262.717187 
L 278.124365 261.050567 
L 278.774975 265.078623 
L 279.425586 264.559774 
L 280.076196 269.810897 
L 280.726806 264.953419 
L 281.377417 267.975328 
L 282.028027 258.677448 
L 282.678637 269.653533 
L 283.329248 261.615706 
L 283.979858 258.05086 
L 284.630468 263.08826 
L 285.281079 262.221012 
L 285.931689 258.219527 
L 286.582299 263.840196 
L 287.232909 261.77532 
L 288.53413 261.670685 
L 289.18474 270.13566 
L 289.835351 263.960351 
L 290.485961 259.477785 
L 291.136571 263.742063 
L 291.787182 262.050396 
L 292.437792 263.84509 
L 293.088402 262.233259 
L 293.739013 258.732356 
L 294.389623 267.298768 
L 295.040233 267.604805 
L 295.690844 264.27182 
L 296.341454 269.18281 
L 296.992064 265.552884 
L 297.642674 264.98093 
L 298.293285 262.802134 
L 298.943895 266.286845 
L 299.594505 266.289639 
L 300.245116 264.914357 
L 300.895726 258.96061 
L 301.546336 262.46216 
L 302.196947 262.579637 
L 302.847557 265.629246 
L 303.498167 263.166241 
L 304.148778 261.5931 
L 304.799388 264.164412 
L 305.449998 261.718667 
L 306.100608 258.247798 
L 306.751219 263.754996 
L 307.401829 258.247065 
L 308.052439 260.289936 
L 308.70305 261.005297 
L 309.35366 262.119056 
L 310.00427 262.051209 
L 310.654881 269.887187 
L 311.956101 260.14149 
L 312.606712 262.505697 
L 313.257322 270.528388 
L 313.907932 269.947721 
L 314.558543 269.09744 
L 315.209153 274.116726 
L 315.859763 260.697418 
L 316.510373 236.193537 
L 317.160984 265.264782 
L 317.811594 270.967732 
L 318.462204 250.331992 
L 319.112815 253.995545 
L 319.763425 261.025643 
L 320.414035 256.877656 
L 321.064646 256.942967 
L 321.715256 260.403544 
L 322.365866 258.869729 
L 323.016477 266.418917 
L 323.667087 264.597241 
L 324.317697 256.132297 
L 324.968308 257.434366 
L 325.618918 260.142491 
L 326.269528 252.795386 
L 326.920138 264.282411 
L 327.570749 260.978071 
L 328.221359 256.64264 
L 329.52258 267.327612 
L 331.474411 257.553038 
L 332.125021 264.056648 
L 332.775631 265.756055 
L 333.426242 271.126948 
L 334.727462 253.072374 
L 335.378073 265.264049 
L 336.028683 254.638776 
L 336.679293 261.833545 
L 337.329903 265.264112 
L 337.980514 262.223242 
L 338.631124 263.831377 
L 339.281734 271.375658 
L 339.932345 263.246841 
L 340.582955 270.123168 
L 341.233565 272.622931 
L 341.884176 276.120635 
L 342.534786 260.399845 
L 343.185396 257.552059 
L 343.836007 269.884746 
L 344.486617 264.311607 
L 345.137227 261.752982 
L 345.787837 267.064926 
L 346.438448 269.828805 
L 347.089058 266.676597 
L 347.739668 259.860338 
L 348.390279 263.651337 
L 349.040889 263.030133 
L 349.691499 268.336238 
L 350.34211 269.251393 
L 350.99272 263.132861 
L 351.64333 261.917713 
L 352.293941 261.547171 
L 352.944551 265.446923 
L 354.245772 261.089017 
L 354.896382 268.633938 
L 355.546992 266.799434 
L 356.197602 272.262194 
L 356.848213 270.330146 
L 357.498823 264.846717 
L 358.149433 264.869285 
L 358.800044 270.96134 
L 359.450654 254.595379 
L 360.751875 268.372295 
L 362.053095 261.092043 
L 362.703706 265.115307 
L 363.354316 266.918528 
L 364.004926 266.68846 
L 364.655537 265.719095 
L 365.306147 265.865041 
L 365.956757 262.338279 
L 366.607367 262.565821 
L 367.257978 261.07901 
L 367.908588 262.743075 
L 368.559198 264.721068 
L 369.209809 259.23556 
L 369.860419 263.524546 
L 370.511029 262.780689 
L 371.16164 265.597077 
L 371.81225 265.762913 
L 372.46286 263.349011 
L 373.113471 262.907088 
L 373.764081 259.577628 
L 374.414691 262.151784 
L 375.065302 261.460377 
L 375.715912 271.271029 
L 376.366522 258.403279 
L 377.017132 263.587118 
L 377.667743 260.172644 
L 378.318353 261.540956 
L 378.968963 262.188478 
L 379.619574 256.788623 
L 380.270184 266.676102 
L 380.920794 263.01792 
L 381.571405 265.110541 
L 382.222015 260.239368 
L 382.872625 269.093198 
L 383.523236 262.93843 
L 384.173846 263.648651 
L 384.824456 265.265153 
L 385.475066 256.56913 
L 386.125677 261.188501 
L 386.776287 260.998488 
L 387.426897 266.216632 
L 388.077508 263.134299 
L 388.728118 268.664394 
L 389.378728 262.250351 
L 390.029339 266.763396 
L 390.679949 261.285613 
L 391.330559 263.310183 
L 391.98117 266.218024 
L 392.63178 266.90724 
L 393.28239 261.738921 
L 393.933001 260.272834 
L 394.583611 264.444266 
L 395.234221 262.733724 
L 395.884831 264.487718 
L 396.535442 265.642705 
L 397.836662 260.633668 
L 398.487273 265.439123 
L 398.487273 265.439123 
" style="fill:none;stroke:#008000;stroke-dasharray:9.6,2.4,1.5,2.4;stroke-dashoffset:0;stroke-width:1.5;"/>
   </g>
   <g id="line2d_29">
    <path clip-path="url(#p8f5fa0c5c0)" d="M 73.832727 96.491152 
L 74.483338 110.944581 
L 75.133948 116.107546 
L 75.784558 119.83564 
L 76.435169 122.006722 
L 77.736389 116.110094 
L 78.386999 119.130578 
L 79.03761 102.332428 
L 79.68822 105.478021 
L 80.33883 109.222561 
L 80.989441 92.067846 
L 81.640051 95.889672 
L 82.290661 105.557482 
L 82.941272 91.55688 
L 84.242492 97.274346 
L 84.893103 96.657784 
L 85.543713 90.194168 
L 86.194323 89.406245 
L 86.844934 98.541917 
L 87.495544 81.252603 
L 88.146154 98.136025 
L 88.796764 88.816898 
L 89.447375 92.747824 
L 90.097985 104.329805 
L 90.748595 78.725296 
L 91.399206 100.772852 
L 92.049816 98.923679 
L 92.700426 93.984668 
L 93.351037 80.306442 
L 94.001647 93.274932 
L 94.652257 78.269937 
L 95.302868 92.150496 
L 95.953478 94.983204 
L 96.604088 104.337833 
L 97.254698 94.07509 
L 97.905309 93.274509 
L 98.555919 93.029329 
L 99.206529 115.736315 
L 99.85714 82.632415 
L 100.50775 78.363582 
L 101.15836 72.744384 
L 101.808971 96.49888 
L 102.459581 100.714995 
L 103.110191 94.114241 
L 103.760802 90.307243 
L 104.411412 89.103664 
L 105.062022 88.215327 
L 105.712633 96.497335 
L 106.363243 78.365028 
L 107.013853 89.661002 
L 107.664463 90.915093 
L 108.315074 94.606425 
L 108.965684 91.696626 
L 109.616294 72.509993 
L 110.266905 82.150129 
L 110.917515 98.267602 
L 111.568125 96.47651 
L 112.218736 98.140065 
L 112.869346 88.214303 
L 113.519956 81.730874 
L 114.170567 81.03275 
L 114.821177 79.925406 
L 115.471787 101.674368 
L 116.122398 97.773581 
L 116.773008 86.19171 
L 117.423618 77.874637 
L 118.074228 83.941022 
L 118.724839 85.575331 
L 119.375449 79.925795 
L 120.026059 95.303028 
L 121.97789 68.972054 
L 122.628501 78.123145 
L 123.279111 83.193204 
L 123.929721 76.323901 
L 124.580332 81.191654 
L 125.230942 96.498152 
L 126.532163 75.615022 
L 127.182773 82.863493 
L 127.833383 79.082621 
L 128.483993 79.296428 
L 129.134604 73.785561 
L 129.785214 84.709655 
L 130.435824 68.60431 
L 131.086435 80.861934 
L 131.737045 74.961957 
L 132.387655 82.371332 
L 133.038266 85.574404 
L 133.688876 80.789532 
L 134.339486 74.147372 
L 134.990097 81.932564 
L 135.640707 78.606536 
L 136.291317 77.296203 
L 136.941927 83.244414 
L 137.592538 81.631812 
L 138.243148 81.284052 
L 138.893758 70.247968 
L 139.544369 89.733536 
L 140.194979 76.89126 
L 140.845589 74.795334 
L 141.4962 71.210172 
L 142.14681 80.026429 
L 143.448031 69.232376 
L 144.098641 73.534651 
L 144.749251 70.546646 
L 145.399862 78.302158 
L 146.050472 73.388139 
L 146.701082 91.72928 
L 147.351692 88.214718 
L 148.002303 77.048449 
L 148.652913 74.273402 
L 149.303523 85.844546 
L 149.954134 68.835769 
L 150.604744 79.48311 
L 151.255354 80.810853 
L 151.905965 88.122077 
L 152.556575 73.274938 
L 153.207185 76.178207 
L 153.857796 69.508611 
L 155.159016 85.124285 
L 155.809627 70.801272 
L 156.460237 87.683381 
L 157.761457 76.526859 
L 158.412068 78.125221 
L 159.062678 74.720486 
L 159.713288 76.740602 
L 160.363899 77.533399 
L 161.014509 93.033865 
L 161.665119 81.633205 
L 162.31573 73.038766 
L 162.96634 72.608812 
L 163.61695 81.540169 
L 164.267561 71.498453 
L 164.918171 79.487526 
L 165.568781 67.72989 
L 166.219392 77.148015 
L 166.870002 76.640426 
L 167.520612 79.889309 
L 168.171222 80.811307 
L 168.821833 71.15109 
L 169.472443 74.075675 
L 170.123053 75.336513 
L 170.773664 81.235277 
L 171.424274 82.147205 
L 172.074884 75.390021 
L 172.725495 82.315661 
L 173.376105 69.805105 
L 174.026715 76.951462 
L 174.677326 75.197921 
L 175.327936 70.382424 
L 175.978546 78.392886 
L 176.629156 78.238716 
L 177.279767 73.403898 
L 177.930377 78.721247 
L 178.580987 74.184093 
L 179.231598 77.358931 
L 179.882208 76.509287 
L 180.532818 77.626616 
L 181.183429 71.141758 
L 181.834039 82.837119 
L 182.484649 71.135946 
L 183.13526 75.125664 
L 183.78587 76.114818 
L 184.43648 72.436813 
L 185.087091 71.140299 
L 186.388311 74.273738 
L 187.038921 69.461015 
L 187.689532 74.441217 
L 188.340142 76.708563 
L 188.990752 76.218041 
L 189.641363 68.593226 
L 190.291973 77.951975 
L 190.942583 75.619365 
L 191.593194 68.442597 
L 192.243804 72.649543 
L 192.894414 69.153221 
L 193.545025 78.001878 
L 194.195635 70.624799 
L 194.846245 72.836569 
L 195.496856 76.350635 
L 196.798076 71.716148 
L 197.448686 74.611395 
L 198.099297 72.884074 
L 198.749907 72.318057 
L 199.400517 70.449213 
L 200.051128 74.589475 
L 200.701738 72.777368 
L 201.352348 69.872273 
L 202.002959 77.367243 
L 202.653569 81.108862 
L 203.304179 70.579986 
L 203.95479 76.830127 
L 204.6054 75.298248 
L 205.25601 72.29227 
L 205.906621 73.559584 
L 206.557231 69.579653 
L 207.207841 70.079134 
L 207.858451 73.531087 
L 208.509062 75.499174 
L 209.159672 75.114898 
L 209.810282 71.614494 
L 210.460893 70.963972 
L 211.111503 78.580967 
L 211.762113 79.195057 
L 212.412724 74.229398 
L 213.063334 78.390269 
L 213.713944 76.476252 
L 214.364555 72.816674 
L 215.015165 71.357147 
L 215.665775 79.241208 
L 216.316385 71.042049 
L 216.966996 72.746898 
L 217.617606 71.460205 
L 218.268216 71.084709 
L 218.918827 74.346971 
L 219.569437 62.18873 
L 220.870658 73.37804 
L 221.521268 66.99493 
L 222.171878 75.063769 
L 222.822489 73.694104 
L 223.473099 65.163798 
L 224.123709 74.052124 
L 224.77432 75.618418 
L 225.42493 71.11842 
L 226.07554 69.600921 
L 226.72615 74.126042 
L 227.376761 71.21136 
L 228.027371 75.618833 
L 228.677981 74.049093 
L 229.328592 74.989155 
L 229.979202 79.07597 
L 230.629812 68.531381 
L 231.280423 69.656083 
L 231.931033 73.994416 
L 232.581643 73.139017 
L 233.232254 67.87081 
L 233.882864 72.582087 
L 234.533474 76.260523 
L 235.184085 75.223767 
L 235.834695 77.706931 
L 236.485305 71.902009 
L 237.135915 71.61613 
L 237.786526 78.640419 
L 238.437136 67.531412 
L 239.087746 74.263204 
L 239.738357 72.556161 
L 240.388967 68.902435 
L 241.039577 71.681714 
L 241.690188 76.653748 
L 242.340798 70.141294 
L 242.991408 73.38098 
L 243.642019 73.579695 
L 244.292629 75.619172 
L 244.943239 75.954814 
L 245.59385 76.151809 
L 246.24446 71.210475 
L 246.89507 77.29101 
L 247.54568 74.531623 
L 248.196291 74.949465 
L 248.846901 74.361986 
L 249.497511 76.97103 
L 250.148122 69.963598 
L 250.798732 70.800615 
L 251.449342 79.149085 
L 252.099953 79.108072 
L 252.750563 78.756983 
L 253.401173 80.854158 
L 254.702394 76.162197 
L 255.353004 76.006978 
L 256.003615 74.559656 
L 256.654225 72.195692 
L 257.304835 73.632342 
L 257.955445 80.217055 
L 258.606056 71.305771 
L 259.256666 70.175855 
L 259.907276 80.0531 
L 260.557887 71.622788 
L 261.208497 75.318933 
L 261.859107 76.232633 
L 262.509718 76.936256 
L 263.160328 83.244397 
L 263.810938 79.727337 
L 264.461549 64.45016 
L 265.112159 78.251871 
L 265.762769 71.106448 
L 266.413379 72.581982 
L 267.06399 75.157313 
L 267.7146 70.837703 
L 268.36521 75.61815 
L 269.015821 78.070535 
L 269.666431 69.89005 
L 270.317041 73.677733 
L 270.967652 73.534382 
L 271.618262 74.720082 
L 272.268872 80.544992 
L 272.919483 74.909708 
L 273.570093 74.138607 
L 274.220703 77.672524 
L 274.871314 82.455053 
L 275.521924 80.599967 
L 276.172534 72.086407 
L 276.823144 71.709742 
L 277.473755 73.137015 
L 278.124365 71.585038 
L 278.774975 75.432639 
L 279.425586 74.919148 
L 280.076196 80.394274 
L 280.726806 75.308067 
L 281.377417 78.41076 
L 282.028027 69.46023 
L 282.678637 80.22079 
L 283.329248 72.103179 
L 283.979858 68.916601 
L 284.630468 73.490528 
L 285.281079 72.66751 
L 285.931689 69.061864 
L 286.582299 74.214466 
L 287.232909 72.253741 
L 288.53413 72.156495 
L 289.18474 80.754181 
L 289.835351 74.332123 
L 290.485961 70.164973 
L 291.136571 74.121056 
L 291.787182 72.509483 
L 292.437792 74.220264 
L 293.088402 72.678616 
L 293.739013 69.508464 
L 294.389623 77.697729 
L 295.040233 78.017887 
L 295.690844 74.636178 
L 296.341454 79.705394 
L 296.992064 75.907938 
L 297.642674 75.336713 
L 298.293285 73.21856 
L 298.943895 76.653375 
L 299.594505 76.654187 
L 300.245116 75.268346 
L 300.895726 69.708392 
L 301.546336 72.89513 
L 302.196947 73.003819 
L 302.847557 75.985063 
L 303.498167 73.565641 
L 304.148778 72.083383 
L 304.799388 74.531213 
L 305.449998 72.199288 
L 306.100608 69.085054 
L 306.751219 74.131274 
L 307.401829 69.086584 
L 308.052439 70.892841 
L 308.70305 71.537706 
L 309.35366 72.573182 
L 310.00427 72.510604 
L 310.654881 80.478163 
L 311.956101 70.757731 
L 312.606712 72.935312 
L 313.257322 81.19246 
L 313.907932 80.545536 
L 314.558543 79.612856 
L 315.209153 85.38698 
L 315.859763 71.257164 
L 316.510373 53.568 
L 317.160984 75.618895 
L 317.811594 81.687699 
L 318.462204 62.736094 
L 319.112815 65.553417 
L 319.763425 71.561173 
L 320.414035 67.91598 
L 321.064646 67.970727 
L 321.715256 70.996037 
L 322.365866 69.628193 
L 323.016477 76.785805 
L 323.667087 74.955962 
L 324.317697 67.291725 
L 324.968308 68.386942 
L 325.618918 70.75824 
L 326.269528 64.608403 
L 326.920138 74.646634 
L 327.570749 71.517799 
L 328.221359 67.718012 
L 328.871969 72.117461 
L 329.52258 77.727533 
L 330.8238 70.758923 
L 331.474411 68.488122 
L 332.125021 74.425675 
L 332.775631 76.112381 
L 333.426242 81.870116 
L 334.076852 72.331088 
L 334.727462 64.825026 
L 335.378073 75.618025 
L 336.028683 66.068626 
L 336.679293 72.307559 
L 337.329903 75.611528 
L 337.980514 72.672197 
L 338.631124 74.20707 
L 339.281734 82.149462 
L 339.932345 73.641019 
L 340.582955 80.737009 
L 341.233565 83.618207 
L 341.884176 87.889585 
L 342.534786 70.990607 
L 343.185396 68.485526 
L 343.836007 80.460743 
L 344.486617 74.674525 
L 345.137227 72.232475 
L 345.787837 77.45226 
L 346.438448 80.41403 
L 347.089058 77.052139 
L 347.739668 70.501695 
L 348.390279 74.031706 
L 349.040889 73.433649 
L 349.691499 78.792082 
L 350.34211 79.778353 
L 350.99272 73.534439 
L 351.64333 72.386003 
L 352.293941 72.041566 
L 352.944551 75.801414 
L 354.245772 71.61773 
L 354.896382 79.11289 
L 355.546992 77.176879 
L 356.197602 83.174911 
L 356.848213 80.967288 
L 357.498823 75.202438 
L 358.149433 75.223203 
L 358.800044 81.680328 
L 359.450654 66.030342 
L 360.751875 78.827753 
L 362.053095 71.621987 
L 362.703706 75.469437 
L 363.354316 77.301706 
L 364.004926 77.06426 
L 364.655537 76.075594 
L 365.306147 76.223009 
L 365.956757 72.779614 
L 366.607367 72.994504 
L 367.257978 71.611047 
L 367.908588 73.160855 
L 368.559198 75.076224 
L 369.209809 69.950749 
L 369.860419 73.90972 
L 370.511029 73.197653 
L 371.16164 75.952272 
L 371.81225 76.119743 
L 372.46286 73.738042 
L 373.113471 73.318122 
L 373.764081 70.251953 
L 374.414691 72.605206 
L 375.065302 71.960778 
L 375.715912 82.032214 
L 376.366522 69.221695 
L 377.017132 73.970711 
L 377.667743 70.786991 
L 378.318353 72.036003 
L 378.968963 72.639703 
L 379.619574 67.840954 
L 380.270184 77.05114 
L 380.920794 73.424193 
L 381.571405 75.464875 
L 382.222015 70.847012 
L 382.872625 79.608632 
L 383.523236 73.348354 
L 384.173846 74.029912 
L 384.824456 75.619555 
L 385.475066 67.65661 
L 386.125677 71.71108 
L 386.776287 71.536519 
L 387.426897 76.580643 
L 388.077508 73.535337 
L 388.728118 79.144929 
L 389.378728 72.697691 
L 390.029339 77.141598 
L 390.679949 71.80031 
L 391.330559 73.703944 
L 391.98117 76.581964 
L 392.63178 77.290142 
L 393.28239 72.219807 
L 393.933001 70.876996 
L 394.583611 74.80576 
L 395.234221 73.152662 
L 395.884831 74.848333 
L 396.535442 75.998494 
L 397.836662 71.204004 
L 398.487273 75.793859 
L 398.487273 75.793859 
" style="fill:none;stroke:#008000;stroke-dasharray:9.6,2.4,1.5,2.4;stroke-dashoffset:0;stroke-width:1.5;"/>
   </g>
   <g id="line2d_30">
    <path clip-path="url(#p8f5fa0c5c0)" d="M 73.832727 75.592537 
L 78.386999 75.571259 
L 79.03761 75.429803 
L 79.68822 75.571487 
L 82.941272 75.555082 
L 83.591882 75.105435 
L 84.242492 75.609397 
L 85.543713 75.554494 
L 86.194323 75.160924 
L 86.844934 75.463579 
L 87.495544 75.566802 
L 88.146154 75.272568 
L 89.447375 75.610648 
L 90.097985 75.206894 
L 90.748595 75.592518 
L 95.953478 75.541485 
L 97.254698 75.615067 
L 98.555919 75.406837 
L 99.206529 75.598189 
L 99.85714 75.588631 
L 100.50775 75.414612 
L 101.15836 75.592044 
L 103.760802 75.603423 
L 104.411412 75.36904 
L 105.062022 75.614821 
L 110.917515 75.616015 
L 111.568125 74.945945 
L 112.218736 75.60898 
L 120.026059 75.614176 
L 120.67667 75.509359 
L 121.32728 75.612697 
L 125.881552 75.575374 
L 126.532163 75.297051 
L 127.182773 75.609814 
L 127.833383 75.585065 
L 128.483993 75.267732 
L 129.134604 75.575583 
L 129.785214 75.607709 
L 130.435824 75.51025 
L 131.086435 75.602759 
L 131.737045 75.315504 
L 132.387655 75.599099 
L 133.038266 75.413929 
L 133.688876 75.587208 
L 134.339486 75.582031 
L 134.990097 75.251783 
L 135.640707 75.574237 
L 138.893758 75.551612 
L 140.194979 75.53682 
L 140.845589 75.305756 
L 142.14681 75.601906 
L 145.399862 75.614024 
L 146.050472 75.610762 
L 146.701082 75.478011 
L 147.351692 75.589143 
L 148.002303 75.259938 
L 148.652913 75.610971 
L 149.954134 75.551991 
L 150.604744 75.203234 
L 151.255354 75.611009 
L 151.905965 75.592234 
L 152.556575 75.363427 
L 153.207185 75.606893 
L 161.014509 75.612905 
L 164.918171 75.537123 
L 165.568781 75.37069 
L 166.219392 75.582903 
L 166.870002 75.602095 
L 167.520612 75.458648 
L 168.171222 75.609169 
L 169.472443 75.336668 
L 170.123053 75.61374 
L 170.773664 75.388517 
L 171.424274 74.980042 
L 172.074884 75.566765 
L 172.725495 75.568926 
L 173.376105 75.201888 
L 174.026715 75.612052 
L 175.978546 75.462023 
L 176.629156 75.239722 
L 177.279767 75.492955 
L 177.930377 75.59889 
L 178.580987 75.511995 
L 179.231598 75.601754 
L 181.834039 75.414707 
L 182.484649 73.866758 
L 183.13526 75.577555 
L 183.78587 75.51154 
L 184.43648 75.596747 
L 185.087091 74.967924 
L 185.737701 75.408145 
L 186.388311 75.394548 
L 187.038921 75.565721 
L 187.689532 75.571771 
L 188.340142 75.385672 
L 188.990752 75.58571 
L 189.641363 75.331643 
L 190.291973 73.700739 
L 190.942583 75.610781 
L 191.593194 75.396349 
L 192.243804 75.406552 
L 192.894414 74.779439 
L 193.545025 75.609624 
L 196.798076 75.43809 
L 197.448686 75.014387 
L 198.749907 75.585464 
L 199.400517 75.596292 
L 200.051128 75.420586 
L 200.701738 75.593637 
L 201.352348 75.302229 
L 203.304179 75.55861 
L 203.95479 75.140329 
L 204.6054 75.353509 
L 205.25601 75.426237 
L 205.906621 74.981199 
L 206.557231 75.497297 
L 207.207841 75.548407 
L 207.858451 74.489839 
L 208.509062 75.438659 
L 209.159672 75.600654 
L 211.762113 75.581234 
L 212.412724 75.150285 
L 213.063334 75.535113 
L 213.713944 75.320719 
L 214.364555 75.566689 
L 215.665775 75.566916 
L 216.316385 75.354627 
L 216.966996 75.611654 
L 217.617606 75.517741 
L 218.268216 75.564109 
L 218.918827 75.338697 
L 219.569437 75.596539 
L 220.220047 75.178694 
L 220.870658 75.581519 
L 221.521268 74.21754 
L 222.171878 75.59138 
L 222.822489 75.600256 
L 223.473099 75.41886 
L 224.123709 75.613664 
L 224.77432 75.407083 
L 225.42493 75.59779 
L 228.027371 75.603385 
L 228.677981 74.785393 
L 229.328592 75.606211 
L 232.581643 75.558534 
L 234.533474 75.611331 
L 235.184085 75.533766 
L 235.834695 75.610459 
L 237.786526 75.5097 
L 238.437136 75.571714 
L 239.087746 75.38296 
L 239.738357 75.500104 
L 241.690188 75.492613 
L 242.340798 75.598966 
L 242.991408 75.578769 
L 243.642019 74.181945 
L 244.292629 75.600446 
L 244.943239 75.47344 
L 245.59385 75.566309 
L 246.24446 75.450265 
L 246.89507 75.607823 
L 247.54568 75.606268 
L 248.846901 75.289864 
L 249.497511 75.515579 
L 250.798732 75.596766 
L 257.304835 75.606609 
L 267.06399 75.571904 
L 267.7146 75.60733 
L 268.36521 75.191211 
L 269.015821 75.605718 
L 269.666431 75.552427 
L 270.317041 75.613853 
L 271.618262 75.4804 
L 272.268872 75.581898 
L 273.570093 75.311426 
L 274.220703 75.601659 
L 276.172534 75.561682 
L 277.473755 75.238356 
L 278.124365 75.49762 
L 278.774975 75.341485 
L 279.425586 75.605661 
L 280.076196 75.563294 
L 280.726806 75.358155 
L 281.377417 75.398189 
L 282.028027 75.557984 
L 282.678637 75.555689 
L 283.329248 74.641589 
L 283.979858 75.578845 
L 284.630468 75.088158 
L 285.281079 74.94016 
L 285.931689 75.41556 
L 286.582299 74.867034 
L 287.232909 75.56172 
L 287.88352 74.920305 
L 288.53413 75.60257 
L 289.835351 75.581424 
L 291.136571 75.273763 
L 292.437792 75.604997 
L 293.088402 74.853152 
L 293.739013 75.564792 
L 294.389623 75.569647 
L 295.040233 75.246758 
L 295.690844 75.544273 
L 296.341454 75.284269 
L 296.992064 75.558458 
L 297.642674 75.602039 
L 298.293285 75.456315 
L 298.943895 74.740619 
L 299.594505 75.20111 
L 300.245116 74.767795 
L 300.895726 75.472188 
L 301.546336 74.913629 
L 302.196947 73.133644 
L 302.847557 75.49671 
L 303.498167 75.564754 
L 304.148778 75.309814 
L 304.799388 75.549203 
L 305.449998 74.412031 
L 306.100608 75.057853 
L 306.751219 74.904166 
L 307.401829 75.37875 
L 308.052439 75.540821 
L 308.70305 71.350799 
L 309.35366 75.300692 
L 310.00427 75.560563 
L 310.654881 75.469875 
L 311.305491 75.60769 
L 311.956101 75.0482 
L 312.606712 74.914047 
L 313.257322 75.588024 
L 315.209153 75.604068 
L 315.859763 74.880973 
L 316.510373 75.604959 
L 317.811594 75.616319 
L 318.462204 75.496027 
L 319.763425 75.600313 
L 322.365866 75.593467 
L 323.016477 75.292898 
L 323.667087 75.582998 
L 324.968308 75.520927 
L 325.618918 75.104392 
L 326.269528 75.533766 
L 328.871969 75.521401 
L 329.52258 75.438204 
L 330.17319 75.551574 
L 334.076852 75.564792 
L 334.727462 75.597487 
L 335.378073 75.413778 
L 336.028683 75.581538 
L 336.679293 75.601621 
L 337.329903 75.120056 
L 337.980514 75.614024 
L 338.631124 75.596482 
L 339.281734 75.213703 
L 339.932345 75.274503 
L 340.582955 74.98759 
L 341.233565 75.60513 
L 342.534786 75.417172 
L 343.185396 75.228779 
L 343.836007 72.789544 
L 344.486617 75.408961 
L 345.137227 75.589143 
L 345.787837 75.448198 
L 346.438448 75.599402 
L 347.089058 75.569552 
L 347.739668 74.854651 
L 348.390279 75.583358 
L 349.040889 75.218387 
L 349.691499 75.45677 
L 350.34211 74.856964 
L 350.99272 75.599175 
L 353.595161 75.583055 
L 354.245772 75.200427 
L 354.896382 75.601564 
L 356.197602 75.475431 
L 356.848213 75.427394 
L 357.498823 75.549014 
L 358.149433 75.335758 
L 358.800044 75.605661 
L 359.450654 74.971508 
L 360.101264 75.120018 
L 360.751875 74.877711 
L 361.402485 74.964928 
L 362.053095 75.47454 
L 363.354316 75.59451 
L 366.607367 75.598871 
L 367.257978 75.596103 
L 367.908588 74.181642 
L 369.209809 75.603688 
L 370.511029 75.293846 
L 371.16164 75.587208 
L 371.81225 75.586165 
L 372.46286 74.612669 
L 373.113471 75.479452 
L 373.764081 75.06358 
L 374.414691 75.609169 
L 375.065302 75.438887 
L 376.366522 75.609397 
L 388.077508 75.609169 
L 392.63178 75.610686 
L 394.583611 75.616812 
L 395.234221 75.21778 
L 395.884831 75.613114 
L 397.186052 75.590793 
L 398.487273 75.614384 
L 398.487273 75.614384 
" style="fill:none;stroke:#ff0000;stroke-linecap:square;stroke-width:1.5;"/>
   </g>
   <g id="patch_3">
    <path d="M 57.6 307.584 
L 57.6 41.472 
" style="fill:none;stroke:#000000;stroke-linecap:square;stroke-linejoin:miter;stroke-width:0.8;"/>
   </g>
   <g id="patch_4">
    <path d="M 414.72 307.584 
L 414.72 41.472 
" style="fill:none;stroke:#000000;stroke-linecap:square;stroke-linejoin:miter;stroke-width:0.8;"/>
   </g>
   <g id="patch_5">
    <path d="M 57.6 307.584 
L 414.72 307.584 
" style="fill:none;stroke:#000000;stroke-linecap:square;stroke-linejoin:miter;stroke-width:0.8;"/>
   </g>
   <g id="patch_6">
    <path d="M 57.6 41.472 
L 414.72 41.472 
" style="fill:none;stroke:#000000;stroke-linecap:square;stroke-linejoin:miter;stroke-width:0.8;"/>
   </g>
   <g id="text_16">
    <!-- Population's average and best fitness -->
    <g transform="translate(123.529687 35.472)scale(0.12 -0.12)">
     <defs>
      <path d="M 19.671875 64.796875 
L 19.671875 37.40625 
L 32.078125 37.40625 
Q 38.96875 37.40625 42.71875 40.96875 
Q 46.484375 44.53125 46.484375 51.125 
Q 46.484375 57.671875 42.71875 61.234375 
Q 38.96875 64.796875 32.078125 64.796875 
z
M 9.8125 72.90625 
L 32.078125 72.90625 
Q 44.34375 72.90625 50.609375 67.359375 
Q 56.890625 61.8125 56.890625 51.125 
Q 56.890625 40.328125 50.609375 34.8125 
Q 44.34375 29.296875 32.078125 29.296875 
L 19.671875 29.296875 
L 19.671875 0 
L 9.8125 0 
z
" id="DejaVuSans-80"/>
      <path d="M 18.109375 8.203125 
L 18.109375 -20.796875 
L 9.078125 -20.796875 
L 9.078125 54.6875 
L 18.109375 54.6875 
L 18.109375 46.390625 
Q 20.953125 51.265625 25.265625 53.625 
Q 29.59375 56 35.59375 56 
Q 45.5625 56 51.78125 48.09375 
Q 58.015625 40.1875 58.015625 27.296875 
Q 58.015625 14.40625 51.78125 6.484375 
Q 45.5625 -1.421875 35.59375 -1.421875 
Q 29.59375 -1.421875 25.265625 0.953125 
Q 20.953125 3.328125 18.109375 8.203125 
z
M 48.6875 27.296875 
Q 48.6875 37.203125 44.609375 42.84375 
Q 40.53125 48.484375 33.40625 48.484375 
Q 26.265625 48.484375 22.1875 42.84375 
Q 18.109375 37.203125 18.109375 27.296875 
Q 18.109375 17.390625 22.1875 11.75 
Q 26.265625 6.109375 33.40625 6.109375 
Q 40.53125 6.109375 44.609375 11.75 
Q 48.6875 17.390625 48.6875 27.296875 
z
" id="DejaVuSans-112"/>
      <path d="M 8.5 21.578125 
L 8.5 54.6875 
L 17.484375 54.6875 
L 17.484375 21.921875 
Q 17.484375 14.15625 20.5 10.265625 
Q 23.53125 6.390625 29.59375 6.390625 
Q 36.859375 6.390625 41.078125 11.03125 
Q 45.3125 15.671875 45.3125 23.6875 
L 45.3125 54.6875 
L 54.296875 54.6875 
L 54.296875 0 
L 45.3125 0 
L 45.3125 8.40625 
Q 42.046875 3.421875 37.71875 1 
Q 33.40625 -1.421875 27.6875 -1.421875 
Q 18.265625 -1.421875 13.375 4.4375 
Q 8.5 10.296875 8.5 21.578125 
z
M 31.109375 56 
z
" id="DejaVuSans-117"/>
      <path d="M 9.421875 75.984375 
L 18.40625 75.984375 
L 18.40625 0 
L 9.421875 0 
z
" id="DejaVuSans-108"/>
      <path d="M 17.921875 72.90625 
L 17.921875 45.796875 
L 9.625 45.796875 
L 9.625 72.90625 
z
" id="DejaVuSans-39"/>
      <path id="DejaVuSans-32"/>
      <path d="M 2.984375 54.6875 
L 12.5 54.6875 
L 29.59375 8.796875 
L 46.6875 54.6875 
L 56.203125 54.6875 
L 35.6875 0 
L 23.484375 0 
z
" id="DejaVuSans-118"/>
      <path d="M 45.40625 27.984375 
Q 45.40625 37.75 41.375 43.109375 
Q 37.359375 48.484375 30.078125 48.484375 
Q 22.859375 48.484375 18.828125 43.109375 
Q 14.796875 37.75 14.796875 27.984375 
Q 14.796875 18.265625 18.828125 12.890625 
Q 22.859375 7.515625 30.078125 7.515625 
Q 37.359375 7.515625 41.375 12.890625 
Q 45.40625 18.265625 45.40625 27.984375 
z
M 54.390625 6.78125 
Q 54.390625 -7.171875 48.1875 -13.984375 
Q 42 -20.796875 29.203125 -20.796875 
Q 24.46875 -20.796875 20.265625 -20.09375 
Q 16.0625 -19.390625 12.109375 -17.921875 
L 12.109375 -9.1875 
Q 16.0625 -11.328125 19.921875 -12.34375 
Q 23.78125 -13.375 27.78125 -13.375 
Q 36.625 -13.375 41.015625 -8.765625 
Q 45.40625 -4.15625 45.40625 5.171875 
L 45.40625 9.625 
Q 42.625 4.78125 38.28125 2.390625 
Q 33.9375 0 27.875 0 
Q 17.828125 0 11.671875 7.65625 
Q 5.515625 15.328125 5.515625 27.984375 
Q 5.515625 40.671875 11.671875 48.328125 
Q 17.828125 56 27.875 56 
Q 33.9375 56 38.28125 53.609375 
Q 42.625 51.21875 45.40625 46.390625 
L 45.40625 54.6875 
L 54.390625 54.6875 
z
" id="DejaVuSans-103"/>
      <path d="M 45.40625 46.390625 
L 45.40625 75.984375 
L 54.390625 75.984375 
L 54.390625 0 
L 45.40625 0 
L 45.40625 8.203125 
Q 42.578125 3.328125 38.25 0.953125 
Q 33.9375 -1.421875 27.875 -1.421875 
Q 17.96875 -1.421875 11.734375 6.484375 
Q 5.515625 14.40625 5.515625 27.296875 
Q 5.515625 40.1875 11.734375 48.09375 
Q 17.96875 56 27.875 56 
Q 33.9375 56 38.25 53.625 
Q 42.578125 51.265625 45.40625 46.390625 
z
M 14.796875 27.296875 
Q 14.796875 17.390625 18.875 11.75 
Q 22.953125 6.109375 30.078125 6.109375 
Q 37.203125 6.109375 41.296875 11.75 
Q 45.40625 17.390625 45.40625 27.296875 
Q 45.40625 37.203125 41.296875 42.84375 
Q 37.203125 48.484375 30.078125 48.484375 
Q 22.953125 48.484375 18.875 42.84375 
Q 14.796875 37.203125 14.796875 27.296875 
z
" id="DejaVuSans-100"/>
      <path d="M 48.6875 27.296875 
Q 48.6875 37.203125 44.609375 42.84375 
Q 40.53125 48.484375 33.40625 48.484375 
Q 26.265625 48.484375 22.1875 42.84375 
Q 18.109375 37.203125 18.109375 27.296875 
Q 18.109375 17.390625 22.1875 11.75 
Q 26.265625 6.109375 33.40625 6.109375 
Q 40.53125 6.109375 44.609375 11.75 
Q 48.6875 17.390625 48.6875 27.296875 
z
M 18.109375 46.390625 
Q 20.953125 51.265625 25.265625 53.625 
Q 29.59375 56 35.59375 56 
Q 45.5625 56 51.78125 48.09375 
Q 58.015625 40.1875 58.015625 27.296875 
Q 58.015625 14.40625 51.78125 6.484375 
Q 45.5625 -1.421875 35.59375 -1.421875 
Q 29.59375 -1.421875 25.265625 0.953125 
Q 20.953125 3.328125 18.109375 8.203125 
L 18.109375 0 
L 9.078125 0 
L 9.078125 75.984375 
L 18.109375 75.984375 
z
" id="DejaVuSans-98"/>
      <path d="M 37.109375 75.984375 
L 37.109375 68.5 
L 28.515625 68.5 
Q 23.6875 68.5 21.796875 66.546875 
Q 19.921875 64.59375 19.921875 59.515625 
L 19.921875 54.6875 
L 34.71875 54.6875 
L 34.71875 47.703125 
L 19.921875 47.703125 
L 19.921875 0 
L 10.890625 0 
L 10.890625 47.703125 
L 2.296875 47.703125 
L 2.296875 54.6875 
L 10.890625 54.6875 
L 10.890625 58.5 
Q 10.890625 67.625 15.140625 71.796875 
Q 19.390625 75.984375 28.609375 75.984375 
z
" id="DejaVuSans-102"/>
     </defs>
     <use xlink:href="#DejaVuSans-80"/>
     <use x="56.677734" xlink:href="#DejaVuSans-111"/>
     <use x="117.859375" xlink:href="#DejaVuSans-112"/>
     <use x="181.335938" xlink:href="#DejaVuSans-117"/>
     <use x="244.714844" xlink:href="#DejaVuSans-108"/>
     <use x="272.498047" xlink:href="#DejaVuSans-97"/>
     <use x="333.777344" xlink:href="#DejaVuSans-116"/>
     <use x="372.986328" xlink:href="#DejaVuSans-105"/>
     <use x="400.769531" xlink:href="#DejaVuSans-111"/>
     <use x="461.951172" xlink:href="#DejaVuSans-110"/>
     <use x="525.330078" xlink:href="#DejaVuSans-39"/>
     <use x="552.820312" xlink:href="#DejaVuSans-115"/>
     <use x="604.919922" xlink:href="#DejaVuSans-32"/>
     <use x="636.707031" xlink:href="#DejaVuSans-97"/>
     <use x="697.986328" xlink:href="#DejaVuSans-118"/>
     <use x="757.166016" xlink:href="#DejaVuSans-101"/>
     <use x="818.689453" xlink:href="#DejaVuSans-114"/>
     <use x="859.802734" xlink:href="#DejaVuSans-97"/>
     <use x="921.082031" xlink:href="#DejaVuSans-103"/>
     <use x="984.558594" xlink:href="#DejaVuSans-101"/>
     <use x="1046.082031" xlink:href="#DejaVuSans-32"/>
     <use x="1077.869141" xlink:href="#DejaVuSans-97"/>
     <use x="1139.148438" xlink:href="#DejaVuSans-110"/>
     <use x="1202.527344" xlink:href="#DejaVuSans-100"/>
     <use x="1266.003906" xlink:href="#DejaVuSans-32"/>
     <use x="1297.791016" xlink:href="#DejaVuSans-98"/>
     <use x="1361.267578" xlink:href="#DejaVuSans-101"/>
     <use x="1422.791016" xlink:href="#DejaVuSans-115"/>
     <use x="1474.890625" xlink:href="#DejaVuSans-116"/>
     <use x="1514.099609" xlink:href="#DejaVuSans-32"/>
     <use x="1545.886719" xlink:href="#DejaVuSans-102"/>
     <use x="1581.091797" xlink:href="#DejaVuSans-105"/>
     <use x="1608.875" xlink:href="#DejaVuSans-116"/>
     <use x="1648.083984" xlink:href="#DejaVuSans-110"/>
     <use x="1711.462891" xlink:href="#DejaVuSans-101"/>
     <use x="1772.986328" xlink:href="#DejaVuSans-115"/>
     <use x="1825.085938" xlink:href="#DejaVuSans-115"/>
    </g>
   </g>
   <g id="legend_1">
    <g id="patch_7">
     <path d="M 64.6 205.38425 
L 137.540625 205.38425 
Q 139.540625 205.38425 139.540625 203.38425 
L 139.540625 145.67175 
Q 139.540625 143.67175 137.540625 143.67175 
L 64.6 143.67175 
Q 62.6 143.67175 62.6 145.67175 
L 62.6 203.38425 
Q 62.6 205.38425 64.6 205.38425 
z
" style="fill:#ffffff;opacity:0.8;stroke:#cccccc;stroke-linejoin:miter;"/>
    </g>
    <g id="line2d_31">
     <path d="M 66.6 151.770188 
L 86.6 151.770188 
" style="fill:none;stroke:#0000ff;stroke-linecap:square;stroke-width:1.5;"/>
    </g>
    <g id="line2d_32"/>
    <g id="text_17">
     <!-- average -->
     <g transform="translate(94.6 155.270188)scale(0.1 -0.1)">
      <use xlink:href="#DejaVuSans-97"/>
      <use x="61.279297" xlink:href="#DejaVuSans-118"/>
      <use x="120.458984" xlink:href="#DejaVuSans-101"/>
      <use x="181.982422" xlink:href="#DejaVuSans-114"/>
      <use x="223.095703" xlink:href="#DejaVuSans-97"/>
      <use x="284.375" xlink:href="#DejaVuSans-103"/>
      <use x="347.851562" xlink:href="#DejaVuSans-101"/>
     </g>
    </g>
    <g id="line2d_33">
     <path d="M 66.6 166.448313 
L 86.6 166.448313 
" style="fill:none;stroke:#008000;stroke-dasharray:9.6,2.4,1.5,2.4;stroke-dashoffset:0;stroke-width:1.5;"/>
    </g>
    <g id="line2d_34"/>
    <g id="text_18">
     <!-- -1 sd -->
     <g transform="translate(94.6 169.948313)scale(0.1 -0.1)">
      <defs>
       <path d="M 4.890625 31.390625 
L 31.203125 31.390625 
L 31.203125 23.390625 
L 4.890625 23.390625 
z
" id="DejaVuSans-45"/>
      </defs>
      <use xlink:href="#DejaVuSans-45"/>
      <use x="36.083984" xlink:href="#DejaVuSans-49"/>
      <use x="99.707031" xlink:href="#DejaVuSans-32"/>
      <use x="131.494141" xlink:href="#DejaVuSans-115"/>
      <use x="183.59375" xlink:href="#DejaVuSans-100"/>
     </g>
    </g>
    <g id="line2d_35">
     <path d="M 66.6 181.126438 
L 86.6 181.126438 
" style="fill:none;stroke:#008000;stroke-dasharray:9.6,2.4,1.5,2.4;stroke-dashoffset:0;stroke-width:1.5;"/>
    </g>
    <g id="line2d_36"/>
    <g id="text_19">
     <!-- +1 sd -->
     <g transform="translate(94.6 184.626438)scale(0.1 -0.1)">
      <defs>
       <path d="M 46 62.703125 
L 46 35.5 
L 73.1875 35.5 
L 73.1875 27.203125 
L 46 27.203125 
L 46 0 
L 37.796875 0 
L 37.796875 27.203125 
L 10.59375 27.203125 
L 10.59375 35.5 
L 37.796875 35.5 
L 37.796875 62.703125 
z
" id="DejaVuSans-43"/>
      </defs>
      <use xlink:href="#DejaVuSans-43"/>
      <use x="83.789062" xlink:href="#DejaVuSans-49"/>
      <use x="147.412109" xlink:href="#DejaVuSans-32"/>
      <use x="179.199219" xlink:href="#DejaVuSans-115"/>
      <use x="231.298828" xlink:href="#DejaVuSans-100"/>
     </g>
    </g>
    <g id="line2d_37">
     <path d="M 66.6 195.804563 
L 86.6 195.804563 
" style="fill:none;stroke:#ff0000;stroke-linecap:square;stroke-width:1.5;"/>
    </g>
    <g id="line2d_38"/>
    <g id="text_20">
     <!-- best -->
     <g transform="translate(94.6 199.304563)scale(0.1 -0.1)">
      <use xlink:href="#DejaVuSans-98"/>
      <use x="63.476562" xlink:href="#DejaVuSans-101"/>
      <use x="125" xlink:href="#DejaVuSans-115"/>
      <use x="177.099609" xlink:href="#DejaVuSans-116"/>
     </g>
    </g>
   </g>
  </g>
 </g>
 <defs>
  <clipPath id="p8f5fa0c5c0">
   <rect height="266.112" width="357.12" x="57.6" y="41.472"/>
  </clipPath>
 </defs>
</svg>
