<?xml version="1.0" encoding="UTF-8" standalone="no"?>
<!DOCTYPE svg PUBLIC "-//W3C//DTD SVG 1.1//EN"
 "http://www.w3.org/Graphics/SVG/1.1/DTD/svg11.dtd">
<!-- Generated by graphviz version 2.44.1 (20200629.0846)
 -->
<!-- Pages: 1 -->
<svg width="719pt" height="392pt"
 viewBox="0.00 0.00 719.15 391.77" xmlns="http://www.w3.org/2000/svg" xmlns:xlink="http://www.w3.org/1999/xlink">
<g id="graph0" class="graph" transform="scale(1 1) rotate(0) translate(4 387.77)">
<polygon fill="white" stroke="transparent" points="-4,4 -4,-387.77 715.15,-387.77 715.15,4 -4,4"/>
<!-- method -->
<g id="node1" class="node">
<title>method</title>
<polygon fill="lightgray" stroke="black" points="49.58,-365.19 5.58,-365.19 5.58,-347.19 49.58,-347.19 49.58,-365.19"/>
<text text-anchor="middle" x="27.58" y="-353.99" font-family="Times New Roman,serif" font-size="9.00">method</text>
</g>
<!-- 62170 -->
<g id="node16" class="node">
<title>62170</title>
<ellipse fill="white" stroke="black" cx="27.58" cy="-265.04" rx="27.65" ry="27.65"/>
<text text-anchor="middle" x="27.58" y="-262.84" font-family="Times New Roman,serif" font-size="9.00">62170</text>
</g>
<!-- method&#45;&gt;62170 -->
<g id="edge7" class="edge">
<title>method&#45;&gt;62170</title>
<path fill="none" stroke="green" stroke-width="0.11" d="M27.58,-346.97C27.58,-336.99 27.58,-319.51 27.58,-303.34"/>
<polygon fill="green" stroke="green" stroke-width="0.11" points="31.08,-303 27.58,-293 24.08,-303 31.08,-303"/>
</g>
<!-- content&#45;type -->
<g id="node2" class="node">
<title>content&#45;type</title>
<polygon fill="lightgray" stroke="black" points="132.58,-365.19 68.58,-365.19 68.58,-347.19 132.58,-347.19 132.58,-365.19"/>
<text text-anchor="middle" x="100.58" y="-353.99" font-family="Times New Roman,serif" font-size="9.00">content&#45;type</text>
</g>
<!-- 57441 -->
<g id="node7" class="node">
<title>57441</title>
<ellipse fill="white" stroke="black" cx="100.58" cy="-265.04" rx="27.65" ry="27.65"/>
<text text-anchor="middle" x="100.58" y="-262.84" font-family="Times New Roman,serif" font-size="9.00">57441</text>
</g>
<!-- content&#45;type&#45;&gt;57441 -->
<g id="edge3" class="edge">
<title>content&#45;type&#45;&gt;57441</title>
<path fill="none" stroke="green" stroke-width="0.19" d="M100.58,-346.97C100.58,-336.99 100.58,-319.51 100.58,-303.34"/>
<polygon fill="green" stroke="green" stroke-width="0.19" points="104.08,-303 100.58,-293 97.08,-303 104.08,-303"/>
</g>
<!-- protocol -->
<g id="node3" class="node">
<title>protocol</title>
<polygon fill="lightgray" stroke="black" points="199.08,-365.19 152.08,-365.19 152.08,-347.19 199.08,-347.19 199.08,-365.19"/>
<text text-anchor="middle" x="175.58" y="-353.99" font-family="Times New Roman,serif" font-size="9.00">protocol</text>
</g>
<!-- Hack probability -->
<g id="node4" class="node">
<title>Hack probability</title>
<ellipse fill="lightblue" stroke="black" cx="100.58" cy="-55.15" rx="55.31" ry="55.31"/>
<text text-anchor="middle" x="100.58" y="-52.95" font-family="Times New Roman,serif" font-size="9.00">Hack probability</text>
</g>
<!-- 27201 -->
<g id="node5" class="node">
<title>27201</title>
<ellipse fill="white" stroke="black" cx="245.58" cy="-356.19" rx="27.65" ry="27.65"/>
<text text-anchor="middle" x="245.58" y="-353.99" font-family="Times New Roman,serif" font-size="9.00">27201</text>
</g>
<!-- 45223 -->
<g id="node9" class="node">
<title>45223</title>
<ellipse fill="white" stroke="black" cx="209.58" cy="-265.04" rx="27.65" ry="27.65"/>
<text text-anchor="middle" x="209.58" y="-262.84" font-family="Times New Roman,serif" font-size="9.00">45223</text>
</g>
<!-- 27201&#45;&gt;45223 -->
<g id="edge1" class="edge">
<title>27201&#45;&gt;45223</title>
<path fill="none" stroke="red" stroke-width="0.12" d="M235.55,-330.36C231.8,-321.07 227.47,-310.34 223.43,-300.34"/>
<polygon fill="red" stroke="red" stroke-width="0.12" points="226.67,-299.01 219.68,-291.05 220.18,-301.63 226.67,-299.01"/>
</g>
<!-- 66893 -->
<g id="node12" class="node">
<title>66893</title>
<ellipse fill="white" stroke="black" cx="282.58" cy="-265.04" rx="27.65" ry="27.65"/>
<text text-anchor="middle" x="282.58" y="-262.84" font-family="Times New Roman,serif" font-size="9.00">66893</text>
</g>
<!-- 27201&#45;&gt;66893 -->
<g id="edge4" class="edge">
<title>27201&#45;&gt;66893</title>
<path fill="none" stroke="green" stroke-width="0.23" d="M255.88,-330.36C259.77,-320.99 264.27,-310.16 268.45,-300.09"/>
<polygon fill="green" stroke="green" stroke-width="0.23" points="271.73,-301.32 272.33,-290.74 265.26,-298.64 271.73,-301.32"/>
</g>
<!-- 56866 -->
<g id="node6" class="node">
<title>56866</title>
<ellipse fill="white" stroke="black" cx="318.58" cy="-356.19" rx="27.65" ry="27.65"/>
<text text-anchor="middle" x="318.58" y="-353.99" font-family="Times New Roman,serif" font-size="9.00">56866</text>
</g>
<!-- 61213 -->
<g id="node17" class="node">
<title>61213</title>
<ellipse fill="white" stroke="black" cx="100.58" cy="-173.89" rx="27.65" ry="27.65"/>
<text text-anchor="middle" x="100.58" y="-171.69" font-family="Times New Roman,serif" font-size="9.00">61213</text>
</g>
<!-- 57441&#45;&gt;61213 -->
<g id="edge6" class="edge">
<title>57441&#45;&gt;61213</title>
<path fill="none" stroke="green" stroke-width="0.43" d="M100.58,-237.29C100.58,-229.27 100.58,-220.32 100.58,-211.77"/>
<polygon fill="green" stroke="green" stroke-width="0.43" points="104.08,-211.62 100.58,-201.62 97.08,-211.62 104.08,-211.62"/>
</g>
<!-- 61657 -->
<g id="node8" class="node">
<title>61657</title>
<ellipse fill="white" stroke="black" cx="391.58" cy="-356.19" rx="27.65" ry="27.65"/>
<text text-anchor="middle" x="391.58" y="-353.99" font-family="Times New Roman,serif" font-size="9.00">61657</text>
</g>
<!-- 50792 -->
<g id="node10" class="node">
<title>50792</title>
<ellipse fill="white" stroke="black" cx="464.58" cy="-356.19" rx="27.65" ry="27.65"/>
<text text-anchor="middle" x="464.58" y="-353.99" font-family="Times New Roman,serif" font-size="9.00">50792</text>
</g>
<!-- 66093 -->
<g id="node11" class="node">
<title>66093</title>
<ellipse fill="white" stroke="black" cx="282.58" cy="-173.89" rx="27.65" ry="27.65"/>
<text text-anchor="middle" x="282.58" y="-171.69" font-family="Times New Roman,serif" font-size="9.00">66093</text>
</g>
<!-- 66893&#45;&gt;66093 -->
<g id="edge5" class="edge">
<title>66893&#45;&gt;66093</title>
<path fill="none" stroke="green" stroke-width="0.26" stroke-dasharray="1,5" d="M282.58,-237.29C282.58,-229.27 282.58,-220.32 282.58,-211.77"/>
<polygon fill="green" stroke="green" stroke-width="0.26" points="286.08,-211.62 282.58,-201.62 279.08,-211.62 286.08,-211.62"/>
</g>
<!-- 33011 -->
<g id="node13" class="node">
<title>33011</title>
<ellipse fill="white" stroke="black" cx="537.58" cy="-356.19" rx="27.65" ry="27.65"/>
<text text-anchor="middle" x="537.58" y="-353.99" font-family="Times New Roman,serif" font-size="9.00">33011</text>
</g>
<!-- 62589 -->
<g id="node14" class="node">
<title>62589</title>
<ellipse fill="white" stroke="black" cx="610.58" cy="-356.19" rx="27.65" ry="27.65"/>
<text text-anchor="middle" x="610.58" y="-353.99" font-family="Times New Roman,serif" font-size="9.00">62589</text>
</g>
<!-- 55097 -->
<g id="node15" class="node">
<title>55097</title>
<ellipse fill="white" stroke="black" cx="683.58" cy="-356.19" rx="27.65" ry="27.65"/>
<text text-anchor="middle" x="683.58" y="-353.99" font-family="Times New Roman,serif" font-size="9.00">55097</text>
</g>
<!-- 61213&#45;&gt;Hack probability -->
<g id="edge2" class="edge">
<title>61213&#45;&gt;Hack probability</title>
<path fill="none" stroke="green" stroke-width="0.14" d="M100.58,-146.11C100.58,-138.38 100.58,-129.59 100.58,-120.62"/>
<polygon fill="green" stroke="green" stroke-width="0.14" points="104.08,-120.44 100.58,-110.44 97.08,-120.44 104.08,-120.44"/>
</g>
</g>
</svg>
